<svg width="51" height="54" viewBox="0 0 51 54" fill="none" xmlns="http://www.w3.org/2000/svg">
<path d="M25.0933 0L0 8.83097L3.96492 41.7076L25.12 53.3347L46.384 41.5505L50.3476 8.67471L25.0933 0Z" fill="#B3B3B3"/>
<path d="M47.8445 10.5748L25.0349 2.79614V50.5568L44.1506 39.9773L47.8445 10.5748Z" fill="#A6120D"/>
<path d="M2.81522 10.715L6.21396 40.1179L25.0345 50.5568V2.79532L2.81522 10.715Z" fill="#DD1B16"/>
<path d="M31.3136 28.2215L25.0349 31.1578H18.417L15.3057 38.9386L9.51993 39.0461L25.0349 4.53024L31.3136 28.2215ZM30.7064 26.7432L25.0764 15.5971L20.4581 26.5513H25.0345L30.7064 26.7432Z" fill="#F2F2F2"/>
<path d="M25.0345 4.53024L25.076 15.5971L30.3164 26.5598H25.0459L25.0345 31.1506L32.3219 31.1578L35.7274 39.047L41.2638 39.1495L25.0345 4.53024Z" fill="#B3B3B3"/>
</svg>
