<svg width="48" height="54" viewBox="0 0 48 54" fill="none" xmlns="http://www.w3.org/2000/svg">
<path d="M46.0485 12.4515L24.9466 0.305825C24.5971 0.0873787 24.1165 0 23.5922 0C23.068 0 22.5874 0.131068 22.2379 0.305825L1.26699 12.4951C0.524272 12.932 0 14.0243 0 14.8544V39.1893C0 39.6699 0.0873786 40.2379 0.436893 40.7184L47.0971 13.6311C46.835 13.1068 46.4417 12.7136 46.0485 12.4515Z" fill="#9B4F96"/>
<path d="M0.305847 40.6748C0.524294 41.0243 0.830119 41.3301 1.13594 41.5048L22.1942 53.6942C22.5437 53.9126 23.0243 54 23.5486 54C24.0728 54 24.5534 53.8689 24.9029 53.6942L45.8738 41.5048C46.6165 41.068 47.1408 39.9757 47.1408 39.1456V14.8107C47.1408 14.4175 47.0971 13.9806 46.8787 13.5874L0.305847 40.6748Z" fill="#68217A"/>
<path d="M32.8981 32.2864C31.0631 35.5194 27.568 37.7039 23.5922 37.7039C17.6942 37.7039 12.8884 32.8981 12.8884 27C12.8884 21.102 17.6942 16.2961 23.5922 16.2961C27.568 16.2961 31.0631 18.4806 32.8981 21.7573L38.5777 18.4806C35.6068 13.2816 30.0146 9.74274 23.5922 9.74274C14.068 9.74274 6.33496 17.4757 6.33496 27C6.33496 36.5243 14.068 44.2573 23.5922 44.2573C29.9709 44.2573 35.5631 40.7622 38.534 35.6068L32.8981 32.2864ZM38.0097 27.9612L38.4029 26.0825H36.568V24.0291H38.7961L39.3204 21.3204H41.4612L40.9369 23.9855H42.5971L43.1214 21.3204H45.2185L44.6942 23.9855H45.7427V26.0389H44.301L43.9078 27.9175H45.7427V29.9709H43.5146L42.9903 32.5923H40.8495L41.3738 29.9709H39.7136L39.1893 32.5923H37.0922L37.6165 29.9709H36.568V27.9175H38.0097V27.9612ZM40.1068 27.9612H41.767L42.1602 26.0825H40.5L40.1068 27.9612Z" fill="white"/>
</svg>
