<svg width="47" height="54" viewBox="0 0 47 54" fill="none" xmlns="http://www.w3.org/2000/svg">
<path d="M23.4712 53.3031L4.27729 47.9748L0 0H47L42.7182 47.9673L23.4712 53.3031Z" fill="#264DE4"/>
<path d="M39.0524 44.9128L42.7115 3.92261H23.4999V49.2246L39.0524 44.9128Z" fill="#2965F1"/>
<path d="M9.80565 21.7157L10.333 27.5995H23.5001V21.7157H9.80565Z" fill="#EBEBEB"/>
<path d="M8.74591 9.80655L9.28078 15.6905H23.5V9.80655H8.74591Z" fill="#EBEBEB"/>
<path d="M23.5 36.9969L23.4742 37.0038L16.9213 35.2343L16.5024 30.5417H10.5959L11.4202 39.7802L23.4729 43.1262L23.5 43.1186V36.9969Z" fill="#EBEBEB"/>
<path d="M37.1567 21.7157L38.2189 9.80655H23.4796V15.6905H31.7706L31.2352 21.7157H23.4796V27.5996H30.725L30.042 35.2306L23.4796 37.0018V43.1233L35.5419 39.7802L35.6304 38.7861L37.0131 23.2957L37.1567 21.7157Z" fill="white"/>
</svg>
