<svg width="58" height="56" viewBox="0 0 58 56" fill="none" xmlns="http://www.w3.org/2000/svg">
<path fill-rule="evenodd" clip-rule="evenodd" d="M28.7059 0C12.855 0 0 12.8532 0 28.7095C0 41.3917 8.22514 52.1529 19.6331 55.9509C21.0695 56.2136 21.5929 55.327 21.5929 54.5656C21.5929 53.8835 21.5679 52.0789 21.5529 49.6837C13.5675 51.4179 11.8827 45.8348 11.8827 45.8348C10.5767 42.5179 8.69449 41.635 8.69449 41.635C6.0879 39.8549 8.89182 39.8901 8.89182 39.8901C11.7733 40.0929 13.289 42.8492 13.289 42.8492C15.8498 47.2357 20.009 45.9687 21.6445 45.2338C21.9053 43.3797 22.6473 42.1143 23.4668 41.397C17.0923 40.6709 10.3899 38.2088 10.3899 27.208C10.3899 24.0727 11.509 21.5119 13.3454 19.5045C13.0492 18.7784 12.0641 15.8598 13.6277 11.9067C13.6277 11.9067 16.0368 11.1349 21.5214 14.8483C23.8108 14.212 26.2676 13.8948 28.7085 13.8824C31.1476 13.8924 33.6026 14.2122 35.8955 14.8483C41.3766 11.1349 43.7822 11.9067 43.7822 11.9067C45.349 15.8598 44.3638 18.7784 44.0695 19.5045C45.9094 21.5119 47.0197 24.0727 47.0197 27.208C47.0197 38.237 40.3068 40.6638 33.9128 41.374C34.942 42.2605 35.8602 44.0124 35.8602 46.6913C35.8602 50.528 35.8253 53.6245 35.8253 54.5656C35.8253 55.334 36.3434 56.2276 37.7991 55.9473C49.1983 52.1424 57.4164 41.39 57.4164 28.7095C57.4164 12.8532 44.5615 0 28.7052 0" fill="white"/>
</svg>
