<svg width="47" height="53" viewBox="0 0 47 53" fill="none" xmlns="http://www.w3.org/2000/svg">
<path d="M46.6608 0L42.4099 47.6211L23.3018 52.9184L4.24642 47.6285L0 0H46.6608Z" fill="#E44D26"/>
<path d="M23.3304 48.8694L38.7707 44.5887L42.4034 3.89438H23.3304V48.8694Z" fill="#F16529"/>
<path d="M15.0667 15.5773H23.3303V9.73578H8.68274L8.82257 11.303L10.2583 27.4004H23.3303V21.559H15.6005L15.0667 15.5773Z" fill="#EBEBEB"/>
<path d="M16.3833 30.3213H10.5194L11.3378 39.4932L23.3035 42.8149L23.3304 42.8075V36.7299L23.3048 36.7367L16.7992 34.9801L16.3833 30.3213Z" fill="#EBEBEB"/>
<path d="M23.3102 27.4005H30.5033L29.8253 34.9764L23.3102 36.7349V42.8122L35.2855 39.4932L35.3734 38.5063L36.7461 23.1277L36.8886 21.5591H23.3102V27.4005Z" fill="white"/>
<path d="M23.3102 15.563V15.5773H37.4201L37.5373 14.2643L37.8034 11.303L37.9431 9.73578H23.3102V15.563Z" fill="white"/>
</svg>
