
<svg id="svg" version="1.1" xmlns="http://www.w3.org/2000/svg" xmlns:xlink="http://www.w3.org/1999/xlink" width="128" height="66" viewBox="0, 0, 400,400"><g id="svgg"><path id="path0" d="M186.719 9.567 C 129.022 16.578,86.373 67.613,89.861 125.473 C 94.653 204.990,178.167 253.530,249.293 218.139 C 301.990 191.916,325.044 127.457,300.800 74.121 C 299.404 71.051,299.311 71.016,297.654 72.949 C 294.418 76.725,285.368 82.812,282.989 82.813 C 282.199 82.813,282.215 82.881,284.154 88.127 C 305.800 146.669,262.365 209.116,200.000 209.116 C 132.301 209.116,88.969 136.621,120.957 76.875 C 143.115 35.488,193.870 18.021,236.380 37.154 C 240.507 39.012,239.988 39.085,241.179 36.483 C 242.922 32.677,245.619 29.059,249.292 25.601 C 251.249 23.759,252.780 22.188,252.695 22.110 C 250.633 20.230,235.088 14.179,227.078 12.139 C 215.415 9.169,198.744 8.106,186.719 9.567 M267.708 27.901 C 254.280 30.439,246.016 44.509,250.191 57.725 C 255.344 74.036,276.395 79.058,288.419 66.843 C 304.294 50.717,289.926 23.703,267.708 27.901 M193.830 69.181 C 162.134 73.462,142.122 105.077,152.146 135.034 C 167.583 181.167,232.417 181.167,247.854 135.034 C 259.464 100.339,229.905 64.308,193.830 69.181 M88.920 290.287 C 54.956 294.649,35.826 330.829,50.589 362.782 C 62.615 388.811,97.093 398.808,122.593 383.659 C 141.281 372.556,150.186 349.776,144.725 327.041 C 138.862 302.637,115.021 286.935,88.920 290.287 M202.539 290.389 C 194.620 291.720,185.816 295.583,179.719 300.402 C 178.593 301.292,177.620 301.962,177.558 301.889 C 177.447 301.762,176.164 293.067,176.169 292.480 C 176.171 292.319,171.689 292.188,166.211 292.188 L 156.250 292.188 156.250 340.430 L 156.250 388.672 168.155 388.672 L 180.060 388.672 180.167 357.715 L 180.273 326.758 181.413 324.414 C 182.832 321.496,187.901 316.316,191.230 314.380 C 204.859 306.459,217.310 309.099,223.199 321.159 C 226.069 327.036,225.939 325.340,226.078 358.691 L 226.204 388.672 237.924 388.672 L 249.644 388.672 249.499 357.129 C 249.337 322.089,249.411 323.170,246.610 314.738 C 240.667 296.849,222.809 286.982,202.539 290.389 M340.820 290.265 C 318.151 293.392,301.511 308.792,297.201 330.634 C 288.675 373.845,336.848 406.845,373.047 382.591 C 380.289 377.739,389.207 368.612,387.856 367.434 C 387.768 367.357,383.940 364.774,379.350 361.693 L 371.004 356.092 370.212 357.245 C 361.806 369.491,347.153 373.816,334.570 367.765 C 313.558 357.661,312.788 324.724,333.301 313.483 C 345.407 306.848,359.636 310.178,368.909 321.814 C 371.296 324.809,370.107 325.148,379.694 318.745 C 388.758 312.693,388.371 313.143,386.654 310.648 C 377.098 296.759,357.364 287.984,340.820 290.265 M12.109 340.430 L 12.109 388.672 23.828 388.672 L 35.547 388.672 35.547 340.430 L 35.547 292.188 23.828 292.188 L 12.109 292.188 12.109 340.430 M262.500 340.430 L 262.500 388.672 274.414 388.672 L 286.328 388.672 286.328 340.430 L 286.328 292.188 274.414 292.188 L 262.500 292.188 262.500 340.430 M102.319 310.779 C 130.048 317.517,131.609 359.859,104.474 369.212 C 80.392 377.513,59.546 350.105,71.294 325.586 C 76.700 314.302,90.234 307.843,102.319 310.779 " stroke="none" fill="#4c8cfc" fill-rule="evenodd"></path><path id="path1" d="" stroke="none" fill="#508cfc" fill-rule="evenodd"></path><path id="path2" d="" stroke="none" fill="#508cfc" fill-rule="evenodd"></path><path id="path3" d="" stroke="none" fill="#508cfc" fill-rule="evenodd"></path><path id="path4" d="" stroke="none" fill="#508cfc" fill-rule="evenodd"></path></g></svg>