<svg width="44" height="60" viewBox="0 0 44 60" fill="none" xmlns="http://www.w3.org/2000/svg">
<path d="M14.1052 45.9267C14.1052 45.9267 11.8373 47.2465 15.7214 47.6918C20.4276 48.2294 22.8326 48.1523 28.0175 47.1723C28.0175 47.1723 29.3834 48.0263 31.2874 48.7666C19.6602 53.7478 4.97394 48.4778 14.1052 45.9267ZM12.6837 39.4254C12.6837 39.4254 10.1393 41.309 14.0267 41.7115C19.0541 42.2305 23.0234 42.2729 29.8953 40.9503C29.8953 40.9503 30.8435 41.9137 32.3369 42.4399C18.282 46.5505 2.62749 42.7634 12.6837 39.4254Z" fill="#0074BD"/>
<path d="M24.66 28.3954C27.5265 31.6948 23.9083 34.6612 23.9083 34.6612C23.9083 34.6612 31.1822 30.907 27.8424 26.2036C24.7219 21.8194 22.3297 19.6419 35.2809 12.1305C35.2809 12.131 14.9511 17.2069 24.66 28.3954Z" fill="#EA2D2E"/>
<path d="M40.0371 50.7362C40.0371 50.7362 41.7161 52.1207 38.1874 53.1907C31.4782 55.2231 10.2573 55.8359 4.36354 53.272C2.24592 52.35 6.21854 51.0716 7.46836 50.8019C8.77148 50.5198 9.51557 50.5711 9.51557 50.5711C7.15912 48.9122 -5.71501 53.8301 2.97717 55.2407C26.6801 59.083 46.1845 53.5104 40.0371 50.7362ZM15.1971 32.6882C15.1971 32.6882 4.40398 35.2521 11.3753 36.1841C14.3193 36.578 20.1855 36.4876 25.6534 36.029C30.1208 35.6536 34.6039 34.852 34.6039 34.852C34.6039 34.852 33.0301 35.5271 31.8902 36.3045C20.9277 39.1881 -0.244693 37.845 5.85125 34.8972C11.0047 32.4046 15.1971 32.6882 15.1971 32.6882ZM34.5592 43.5104C45.702 37.7218 40.5495 32.1587 36.9532 32.908C36.074 33.0912 35.6796 33.2505 35.6796 33.2505C35.6796 33.2505 36.007 32.7372 36.6312 32.5164C43.7452 30.0163 49.2155 39.8922 34.3366 43.8039C34.3366 43.803 34.5074 43.6483 34.5592 43.5104Z" fill="#0074BD"/>
<path d="M27.8424 0C27.8424 0 34.0121 6.17349 21.9891 15.6635C12.3473 23.2786 19.7906 27.6194 21.9858 32.5811C16.357 27.5033 12.2284 23.0326 14.9978 18.8721C19.0646 12.7661 30.3311 9.80451 27.8424 0Z" fill="#EA2D2E"/>
<path d="M16.2923 59.201C26.9855 59.8847 43.4108 58.8204 43.7995 53.7602C43.7995 53.7602 43.052 55.6784 34.9612 57.2004C25.8333 58.9189 14.5729 58.7186 7.89655 57.6162C7.89655 57.6167 9.26436 58.749 16.2923 59.201Z" fill="#0074BD"/>
</svg>
