<svg width="46" height="45" viewBox="0 0 46 45" fill="none" xmlns="http://www.w3.org/2000/svg">
<path d="M2.90519 10.3436C-1.14341 16.1589 -0.64311 23.7252 2.45463 29.9051C2.52357 30.0564 2.60387 30.1993 2.6792 30.345C2.72378 30.4409 2.77263 30.5348 2.82559 30.6264C2.84833 30.6775 2.88529 30.7337 2.91514 30.7841C2.96488 30.8851 3.01747 30.9781 3.07077 31.0741C3.17026 31.2418 3.26975 31.4124 3.36924 31.5787C3.42539 31.671 3.47869 31.7634 3.54193 31.8565C3.64782 32.0356 3.77005 32.2133 3.8802 32.3916C3.92995 32.4684 3.97614 32.543 4.02944 32.6176C4.18792 32.8592 4.34782 33.0987 4.52335 33.334C4.52335 33.3411 4.53045 33.3468 4.53614 33.3503C4.56314 33.3901 4.59299 33.4285 4.61929 33.464C4.76852 33.6687 4.91776 33.8677 5.0741 34.0652C5.12669 34.1377 5.18639 34.2109 5.23969 34.282C5.38182 34.4547 5.52111 34.6266 5.66039 34.7972C5.71369 34.859 5.76628 34.9237 5.82313 34.9862C6.01456 35.2169 6.21123 35.4432 6.41298 35.6649C6.42008 35.6734 6.42648 35.682 6.43927 35.6898C6.63115 35.9001 6.82729 36.1077 7.02627 36.313C7.08952 36.3763 7.15206 36.4374 7.2217 36.5042C7.37449 36.6584 7.52728 36.814 7.68931 36.9661C7.75611 37.0294 7.8222 37.0905 7.88545 37.1516C8.09723 37.3506 8.30971 37.5496 8.53215 37.74C8.53499 37.74 8.53854 37.7471 8.54139 37.7486C8.57763 37.7805 8.61814 37.8125 8.65154 37.8438C8.84626 38.0108 9.0424 38.1764 9.24138 38.3412C9.32097 38.4073 9.40057 38.4699 9.48016 38.5345C9.64574 38.666 9.81133 38.7918 9.97762 38.9183C10.0629 38.9822 10.1496 39.0483 10.2391 39.1173C10.4182 39.2509 10.6044 39.3816 10.7863 39.511C10.8524 39.5593 10.9185 39.6076 10.9889 39.6524C11.0052 39.6666 11.0244 39.6808 11.0415 39.6943C11.2241 39.8137 11.3968 39.9288 11.5759 40.0475C11.6548 40.0987 11.7322 40.1484 11.8076 40.1996C12.0861 40.3773 12.3647 40.5478 12.6397 40.7134C12.7193 40.756 12.7989 40.8001 12.875 40.8442C13.081 40.9636 13.29 41.0815 13.5018 41.1945C13.6176 41.2585 13.7341 41.3153 13.8528 41.375C13.9964 41.4532 14.1449 41.5328 14.2977 41.6102C14.3346 41.6252 14.3709 41.6387 14.4043 41.6564C14.4668 41.6849 14.5265 41.7161 14.5862 41.746C14.8186 41.8604 15.0567 41.9684 15.3026 42.0779C15.3487 42.0999 15.3985 42.1191 15.4482 42.1439C15.7233 42.2633 15.9983 42.3785 16.2797 42.4893C16.3472 42.5142 16.4126 42.544 16.4829 42.5668C16.7381 42.6663 17.0031 42.7643 17.2647 42.8582C17.2981 42.8724 17.3286 42.8823 17.3613 42.8937C17.6527 42.9932 17.9412 43.0877 18.2368 43.1787C18.3058 43.1986 18.3761 43.2227 18.4486 43.2412C18.7506 43.3322 19.042 43.4388 19.3511 43.497C38.9226 47.0645 44.6092 31.735 44.6092 31.735C39.8315 37.9532 31.3534 39.5963 23.323 37.7684C23.0245 37.7016 22.7296 37.6064 22.4276 37.5169C22.3539 37.4967 22.2809 37.4742 22.2087 37.4494C21.9198 37.3614 21.6324 37.2685 21.3467 37.1708C21.3069 37.1566 21.2642 37.1424 21.2237 37.126C20.969 37.0369 20.716 36.9431 20.4647 36.8446C20.3951 36.814 20.3226 36.7892 20.2523 36.7629C19.9759 36.6534 19.7018 36.5385 19.43 36.4182C19.371 36.3969 19.3206 36.3713 19.2644 36.3486C19.0339 36.2425 18.8041 36.1347 18.5751 36.0252C18.5055 35.9954 18.4422 35.9613 18.3726 35.9271C18.1935 35.8419 18.0144 35.7481 17.8396 35.655C17.7159 35.5924 17.5965 35.5342 17.4807 35.4702C17.2654 35.3536 17.0493 35.2307 16.834 35.112C16.7641 35.0669 16.692 35.0251 16.618 34.9869C16.3369 34.8208 16.0586 34.6502 15.783 34.4753C15.7064 34.427 15.6313 34.3765 15.5577 34.3239C15.3564 34.1959 15.1574 34.0644 14.9607 33.9295L14.7688 33.7916C14.5794 33.6585 14.3913 33.5235 14.2046 33.3866C14.1227 33.3224 14.0398 33.2596 13.9559 33.1982C13.7867 33.0675 13.6176 32.9381 13.4492 32.8024C13.3753 32.7413 13.2999 32.6809 13.2267 32.6219C13.0119 32.448 12.8005 32.2698 12.5928 32.0875C12.5736 32.0662 12.5438 32.0477 12.5203 32.0292C12.2979 31.8302 12.0762 31.627 11.8573 31.4244C11.7905 31.3619 11.7351 31.3036 11.6683 31.2432C11.5098 31.0876 11.3499 30.9355 11.1943 30.7777L11.0052 30.5873C10.8049 30.385 10.6092 30.1781 10.4182 29.9669C10.4074 29.9578 10.3974 29.9478 10.3884 29.937C10.187 29.7147 9.9892 29.4891 9.79498 29.2605C9.74168 29.1994 9.69194 29.1361 9.63935 29.0764C9.49651 28.9009 9.35366 28.7232 9.20798 28.5477C9.16179 28.4795 9.10849 28.4155 9.05519 28.3487C8.88705 28.1322 8.72263 27.9128 8.562 27.6907C4.10548 21.6117 2.49727 13.2217 6.06191 6.33621" fill="#2E64B3"/>
<path d="M15.471 5.44076C12.5367 9.65139 12.6994 15.2904 14.9842 19.7462C15.3626 20.4958 15.7946 21.2171 16.2769 21.9045C16.7146 22.5341 17.1986 23.2803 17.7856 23.7863C17.9917 24.0187 18.2134 24.244 18.4422 24.4707L18.6149 24.6412C18.8338 24.8523 19.0555 25.0598 19.2844 25.2616C19.2915 25.2702 19.3043 25.2787 19.3114 25.2872C19.3142 25.2872 19.3178 25.2943 19.3178 25.2943C19.5729 25.5196 19.8316 25.7335 20.1002 25.9424C20.1627 25.9872 20.2196 26.0377 20.2821 26.0817C20.5479 26.2892 20.8201 26.4875 21.0944 26.6836C21.1043 26.6836 21.1114 26.6936 21.125 26.6993C21.2436 26.7846 21.3701 26.8649 21.4995 26.948C21.5556 26.9835 21.6153 27.0269 21.6714 27.0617C21.8733 27.1932 22.073 27.3154 22.2783 27.4369C22.3082 27.4511 22.338 27.4682 22.3679 27.4831C22.5399 27.5876 22.7225 27.6899 22.9051 27.783C22.9684 27.8214 23.0309 27.8512 23.0942 27.8861C23.22 27.9486 23.3457 28.0154 23.4687 28.0801C23.485 28.0886 23.5085 28.0978 23.5284 28.1071C23.7871 28.235 24.0493 28.3523 24.3073 28.4695L24.4828 28.5406C24.696 28.633 24.9106 28.7225 25.1231 28.8035C25.219 28.8348 25.3086 28.8725 25.3981 28.9044C25.5935 28.9741 25.7932 29.0416 25.9887 29.1063L26.2573 29.193C26.5359 29.2811 26.818 29.3934 27.1129 29.4396C42.2186 31.9446 45.7136 20.3076 45.7136 20.3076C42.5668 24.8416 36.4751 26.9992 29.9776 25.3121C29.6862 25.2375 29.4005 25.1543 29.1219 25.0634C29.0355 25.0398 28.9502 25.0125 28.8661 24.9816C28.6643 24.9177 28.4617 24.8487 28.2663 24.7755C28.1754 24.7434 28.0849 24.71 27.9948 24.6753C27.7795 24.5908 27.5635 24.5076 27.3545 24.4145C27.292 24.3896 27.2323 24.3683 27.1826 24.342C26.9159 24.2256 26.6515 24.104 26.3895 23.9775L25.9951 23.7735C25.9155 23.7337 25.8394 23.6953 25.7698 23.6591C25.5935 23.5681 25.4315 23.4715 25.2652 23.3741L25.1458 23.3095C24.944 23.1865 24.7351 23.0643 24.5432 22.9364C24.4764 22.8987 24.4203 22.8553 24.3577 22.8155C24.2242 22.7302 24.0915 22.6435 23.9598 22.5554C23.6849 22.3623 23.4138 22.1637 23.1468 21.9599C23.0842 21.9088 23.0245 21.8626 22.9648 21.8121C20.113 19.5679 17.8588 16.4978 16.7914 13.0213C15.6636 9.41048 15.9123 5.35691 17.8552 2.07013" fill="#2E64B3"/>
<path d="M26.0349 1.77877C24.3044 4.31865 24.1381 7.47395 25.3313 10.2746C26.5984 13.2523 29.188 15.5882 32.2055 16.694C32.3277 16.7423 32.4506 16.7821 32.5771 16.8255C32.634 16.8418 32.6859 16.8603 32.7463 16.878C32.9218 16.9328 33.0973 16.9988 33.2793 17.0344C41.6245 18.6454 43.8865 12.7513 44.4934 11.8843C42.5071 14.7397 39.1749 15.4233 35.0865 14.4313C34.7532 14.3462 34.4247 14.2437 34.1022 14.1243C33.7019 13.982 33.3089 13.82 32.9247 13.6389C32.199 13.2875 31.5095 12.866 30.8659 12.3803C27.2053 9.6052 24.9369 4.31154 27.3247 0" fill="#2E64B3"/>
</svg>
