<svg width="52" height="52" viewBox="0 0 52 52" fill="none" xmlns="http://www.w3.org/2000/svg">
<path d="M0 0H52V52H0V0Z" fill="#F7DF1E"/>
<path d="M13.6727 43.4549L17.652 41.0467C18.4198 42.4078 19.1181 43.5595 20.7933 43.5595C22.399 43.5595 23.4116 42.9315 23.4116 40.4883V23.8731H28.2982V40.5574C28.2982 45.6186 25.3313 47.9225 21.0027 47.9225C17.0936 47.9225 14.8245 45.8979 13.6725 43.4545M30.9524 42.9313L34.9312 40.6276C35.9787 42.3381 37.3401 43.5947 39.7483 43.5947C41.7733 43.5947 43.0643 42.5823 43.0643 41.186C43.0643 39.5106 41.7379 38.9171 39.5039 37.9401L38.2826 37.416C34.7569 35.9155 32.4183 34.0305 32.4183 30.0513C32.4183 26.3861 35.2107 23.5936 39.574 23.5936C42.6806 23.5936 44.9146 24.6758 46.5201 27.5031L42.7152 29.9467C41.8773 28.4458 40.9701 27.8525 39.5738 27.8525C38.1426 27.8525 37.235 28.76 37.235 29.9467C37.235 31.4127 38.1426 32.0064 40.2368 32.914L41.4584 33.4374C45.6123 35.2178 47.9509 37.0327 47.9509 41.1164C47.9509 45.5148 44.4953 47.9231 39.8529 47.9231C35.3153 47.9231 32.3832 45.759 30.9522 42.9315" fill="black"/>
</svg>
