<svg width="49" height="51" viewBox="0 0 49 51" fill="none" xmlns="http://www.w3.org/2000/svg">
<path d="M48.9724 11.5376C48.9906 11.6053 49 11.6756 49 11.746V22.6929C49 22.979 48.8488 23.2431 48.6032 23.3854L39.5158 28.6756V39.1604C39.5159 39.3007 39.4794 39.4385 39.4101 39.5601C39.3409 39.6816 39.2412 39.7827 39.1211 39.853L20.1512 50.8936C20.1078 50.9187 20.0605 50.9346 20.0131 50.9516C19.9953 50.9575 19.9786 50.9685 19.9598 50.9735C19.8272 51.0088 19.6878 51.0088 19.5552 50.9735C19.5334 50.9675 19.5137 50.9555 19.493 50.9476C19.4496 50.9315 19.4042 50.9176 19.3628 50.8936L0.396785 39.8528C0.276265 39.7829 0.176121 39.682 0.106456 39.5604C0.0367922 39.4389 7.18468e-05 39.3009 0 39.1604L0 6.31936C0 6.24776 0.00995312 6.1777 0.0275625 6.10997C0.0334961 6.08695 0.0472773 6.06604 0.0553164 6.04302C0.0700547 6.00122 0.0840273 5.95826 0.105656 5.91936C0.120395 5.89343 0.142023 5.87253 0.159824 5.84853C0.182602 5.8166 0.203273 5.7837 0.229879 5.75564C0.252656 5.73281 0.282324 5.71578 0.307973 5.69584C0.336684 5.67185 0.362141 5.64592 0.39468 5.62695H0.395637L9.87905 0.106648C9.99914 0.0367752 10.1353 0 10.2738 0C10.4124 0 10.5485 0.0367752 10.6686 0.106648L20.152 5.62695H20.1539C20.1855 5.64688 20.2123 5.67185 20.2408 5.69468C20.2665 5.71481 20.2952 5.73281 20.3178 5.75467C20.3455 5.7837 20.3652 5.8166 20.3888 5.84853C20.4056 5.87253 20.4284 5.89343 20.4422 5.91936C20.4648 5.95922 20.4776 6.00122 20.4935 6.04321C20.5013 6.06604 20.5151 6.08694 20.521 6.11094C20.5392 6.17887 20.5486 6.24892 20.5488 6.31936V26.8315L28.4512 22.231V11.745C28.4512 11.6754 28.4612 11.6043 28.479 11.5376C28.4858 11.5136 28.4987 11.4927 28.5065 11.4697C28.5224 11.4277 28.5362 11.3849 28.5578 11.3458C28.5725 11.3201 28.5942 11.299 28.6112 11.2752C28.6348 11.2432 28.6545 11.2103 28.682 11.1823C28.705 11.1594 28.7335 11.1424 28.7592 11.1223C28.7888 11.0985 28.8145 11.0726 28.8461 11.0536H28.847L38.3312 5.53329C38.4513 5.46332 38.5874 5.42649 38.726 5.42649C38.8646 5.42649 39.0007 5.46332 39.1208 5.53329L48.6042 11.0536C48.6379 11.0735 48.6635 11.0985 48.693 11.1213C48.7179 11.1414 48.7464 11.1594 48.769 11.1813C48.7967 11.2103 48.8164 11.2432 48.8402 11.2752C48.8578 11.299 48.8796 11.3201 48.8934 11.346C48.9162 11.3847 48.929 11.4277 48.9447 11.4697C48.9537 11.4927 48.9665 11.5136 48.9722 11.5374L48.9724 11.5376ZM47.4192 22.231V13.1279L44.1004 15.0594L39.5156 17.7284V26.8315L47.4201 22.231H47.4192ZM37.9358 38.6985V29.589L33.4258 32.1931L20.5478 39.6242V48.8191L37.9358 38.6985ZM1.58082 7.70127V38.6985L18.9668 48.8183V39.6252L9.88422 34.4281L9.88135 34.4262L9.87752 34.4242C9.84689 34.4062 9.82105 34.3803 9.79253 34.3584C9.76765 34.3383 9.73913 34.3224 9.7175 34.3004L9.71559 34.2975C9.68994 34.2725 9.67214 34.2415 9.65051 34.2137C9.63061 34.1866 9.60706 34.1637 9.59118 34.1359L9.59022 34.1328C9.57242 34.1028 9.56151 34.067 9.54868 34.0331C9.53586 34.0031 9.51921 33.9751 9.51117 33.9433V33.9424C9.50141 33.9044 9.49949 33.8644 9.49547 33.8255C9.49164 33.7957 9.48361 33.7657 9.48361 33.7357V12.3016L4.89962 9.63201L1.58082 7.70263V7.70127ZM10.2749 1.72098L2.37325 6.31936L10.273 10.9179L18.1734 6.31839L10.273 1.72098H10.2749ZM14.384 30.4192L18.9678 27.7513V7.70127L15.6494 9.63278L11.0642 12.302V32.352L14.384 30.4192ZM38.7261 7.14762L30.8256 11.746L38.7261 16.3446L46.6256 11.745L38.7261 7.14762ZM37.9356 17.7284L33.3508 15.0594L30.0322 13.1279V22.231L34.616 24.8989L37.9358 26.8315L37.9356 17.7284ZM19.7564 38.2423L31.3447 31.5538L37.1374 28.2113L29.2427 23.6158L20.153 28.9066L11.8685 33.7287L19.7564 38.2423Z" fill="#FF2D20"/>
</svg>
