<svg width="63" height="64" viewBox="0 0 63 64" fill="none" xmlns="http://www.w3.org/2000/svg">
<path fill-rule="evenodd" clip-rule="evenodd" d="M43.3213 50.5467C43.4093 50.3774 43.4937 50.2278 43.5657 50.073C43.611 49.974 43.6808 49.9542 43.7793 49.9568C44.3697 49.9735 44.9602 49.9917 45.5511 49.9975C46.0529 50.0027 46.5558 49.9933 47.0581 49.9876C47.6241 49.9808 48.19 49.9511 48.7554 49.9672C49.5084 49.9891 50.2421 50.1366 50.9232 50.4717C51.7367 50.8724 52.3521 51.4826 52.7716 52.2867C53.0353 52.7965 53.2 53.3518 53.2568 53.923C53.3464 54.7609 53.2875 55.5796 53.0217 56.3811C52.6924 57.3743 52.0671 58.1346 51.1984 58.7042C50.5298 59.1424 49.7966 59.4014 49.0107 59.5494C48.1791 59.7063 47.3448 59.6557 46.5105 59.6583C45.5954 59.662 44.6808 59.6422 43.7658 59.6318C43.6058 59.6302 43.5829 59.6 43.6251 59.4473L43.6641 59.3066C43.7533 59.0262 43.8012 59.0137 44.0857 58.9668C44.2874 58.9351 44.4803 58.8618 44.6522 58.7516C44.7481 58.688 44.7877 58.5223 44.8252 58.3946C44.8575 58.2831 44.8591 58.1607 44.8601 58.0429C44.8731 56.2581 44.8867 54.4738 44.894 52.69C44.896 52.2389 44.8847 51.7877 44.8601 51.3372C44.8424 51.022 44.6741 50.8062 44.2989 50.7317C44.007 50.6739 43.7131 50.6291 43.4197 50.5775L43.3213 50.5467ZM51.6986 54.8683C51.659 54.5129 51.6398 54.1544 51.5762 53.8042C51.424 52.9636 51.0561 52.2315 50.4099 51.6577C49.3651 50.7307 48.1071 50.5879 46.7887 50.6984C46.4886 50.7234 46.424 50.826 46.4193 51.1345C46.412 51.5723 46.4047 52.01 46.4042 52.4477C46.4021 53.836 46.4021 55.2242 46.4042 56.6124C46.4047 57.0075 46.4088 57.4025 46.4203 57.7964C46.4328 58.1998 46.5792 58.5411 46.9742 58.6974C47.597 58.9439 48.252 58.9731 48.9055 58.8725C49.9493 58.7125 50.6793 58.1044 51.1692 57.193C51.5569 56.4697 51.6663 55.6802 51.6986 54.8683ZM54.2359 59.5953C54.2234 59.379 54.312 59.2003 54.4214 59.0361C54.4511 58.9918 54.5533 58.9939 54.6236 58.9799L55.2208 58.8616C55.4319 58.8167 55.5429 58.675 55.5726 58.4681C55.5924 58.3316 55.6111 58.1935 55.6127 58.0554C55.6269 56.9627 55.6371 55.8699 55.6434 54.7771C55.6487 53.6828 55.6445 52.5884 55.6445 51.4941L55.6398 51.2851C55.6184 50.9334 55.4486 50.751 55.0994 50.6994L54.3422 50.5842C54.249 50.5717 54.2151 50.5269 54.249 50.4441C54.3073 50.3028 54.3631 50.1564 54.4454 50.0293C54.4762 49.9824 54.5799 49.9641 54.6497 49.9657C55.0113 49.9709 55.373 49.998 55.7346 49.9975L58.8827 49.9787C59.4892 49.9782 60.075 50.084 60.619 50.3742C61.2178 50.6931 61.5528 51.1866 61.6487 51.8589C61.7488 52.565 61.5346 53.1601 61.0187 53.6327C60.8066 53.8276 60.532 53.9548 60.286 54.1132L60.2058 54.1632C60.434 54.2471 60.6513 54.3196 60.8629 54.4061C61.482 54.6598 61.9744 55.0564 62.235 55.6896C62.4408 56.1893 62.4408 56.7104 62.3189 57.2284C62.1292 58.0392 61.5951 58.5786 60.9004 58.9866C60.2485 59.3696 59.5429 59.5927 58.7915 59.6302C58.0984 59.6651 57.4022 59.6521 56.7076 59.6599L56.3053 59.662C55.6358 59.6466 54.9663 59.6299 54.2969 59.612L54.2359 59.5953ZM57.1213 56.4222H57.1281C57.1281 56.7651 57.1234 57.108 57.1297 57.4509C57.1338 57.6729 57.126 57.9012 57.174 58.1148C57.2459 58.4343 57.3918 58.7224 57.7503 58.8141C58.2296 58.9401 58.7303 58.9621 59.2188 58.8788C59.8321 58.7719 60.3215 58.4645 60.5898 57.8803C60.7889 57.4462 60.8186 56.9861 60.7503 56.516C60.6597 55.897 60.3308 55.4478 59.7842 55.1533C59.4257 54.96 59.0432 54.8417 58.6357 54.8261C58.1792 54.8089 57.7222 54.8078 57.2657 54.7938C57.1375 54.7901 57.1198 54.8553 57.1203 54.9605C57.1229 55.4472 57.1213 55.9345 57.1213 56.4222ZM58.0932 54.0903C58.3428 54.0778 58.6252 54.0741 58.9061 54.046C59.4439 53.9923 59.8228 53.7218 60.0203 53.2075C60.1208 52.9464 60.1167 52.6775 60.1193 52.406C60.1271 51.6989 59.7144 51.1194 59.0427 50.8797C58.5241 50.6947 57.9895 50.6916 57.4517 50.7062C57.2339 50.7119 57.1364 50.8073 57.1333 51.0267L57.101 53.887C57.0994 54.0006 57.1484 54.0496 57.2589 54.0533L58.0932 54.0903Z" fill="white"/>
<path fill-rule="evenodd" clip-rule="evenodd" d="M3.34372 59.0455L3.30568 59.5374C2.95132 59.5374 2.62459 59.5348 2.29785 59.5385C1.68242 59.5447 1.06699 59.5546 0.451033 59.5635L0.391626 59.5671C0.303558 59.5567 0.143577 59.5567 0.139408 59.5307C0.113353 59.3842 0.12169 59.2305 0.128465 59.0789C0.128986 59.0617 0.188914 59.0398 0.223828 59.0314L0.702729 58.9246C1.00133 58.847 1.10659 58.7182 1.12066 58.4098C1.13681 58.0622 1.15297 57.7141 1.15453 57.3665C1.15922 56.5108 1.15401 55.6562 1.15766 54.8005C1.15818 54.6004 1.08887 54.4514 0.902314 54.3701C0.680632 54.2717 0.457394 54.1769 0.232687 54.0856C0.12638 54.0428 -0.0117141 54.0194 0.000792537 53.8766C0.0132992 53.7312 0.147225 53.6932 0.273334 53.6645C0.795487 53.5452 1.31816 53.429 1.83875 53.3018C2.00655 53.2607 2.16705 53.1913 2.36768 53.1215C2.3781 53.2299 2.39738 53.3331 2.3953 53.4363L2.36455 53.9266C2.36403 53.9819 2.39269 54.0559 2.43386 54.0866C2.45887 54.1059 2.54277 54.071 2.58446 54.0387C3.02949 53.7 3.50057 53.4076 4.03784 53.2372C4.87005 52.973 5.5845 53.2179 6.08476 53.9355C6.2609 54.1882 6.26142 54.1882 6.50582 54.0116C6.92531 53.7067 7.36409 53.4378 7.85498 53.2607C8.93263 52.8714 9.96808 53.3654 10.3428 54.4509C10.4793 54.8448 10.5314 55.2518 10.5304 55.6677L10.5205 58.4285C10.5199 58.6562 10.5955 58.786 10.8123 58.8569C11.0556 58.9366 11.3079 58.9913 11.582 59.0632L11.5184 59.538C11.2068 59.538 10.9202 59.5359 10.6335 59.5385C9.93317 59.5447 9.23279 59.5484 8.53294 59.5645C8.411 59.5677 8.37922 59.5374 8.37296 59.4233C8.35264 59.058 8.34951 59.0585 8.69345 58.9762L8.80913 58.9465C9.14525 58.8548 9.25729 58.7516 9.25989 58.4108C9.26771 57.4322 9.28803 56.4509 9.23853 55.4743C9.18694 54.4613 8.38286 53.9219 7.40109 54.1815C7.08422 54.2682 6.78579 54.412 6.52041 54.6056C6.42922 54.6708 6.41202 54.7458 6.41932 54.8599C6.44693 55.2914 6.46413 55.7234 6.46778 56.1554C6.47403 56.9116 6.46465 57.6677 6.46778 58.4243C6.46882 58.7308 6.57357 58.848 6.87633 58.9189L7.32605 59.0226L7.40943 59.0413C7.41568 59.1852 7.42141 59.329 7.41464 59.4728C7.41047 59.563 7.34064 59.5708 7.26247 59.5692C6.82526 59.5583 6.38753 59.5437 5.95032 59.5447C5.41826 59.5458 4.88673 59.5609 4.3552 59.5703H4.23013C4.23013 59.4176 4.22283 59.2717 4.23534 59.1263C4.23795 59.0914 4.29944 59.0424 4.34165 59.0314L4.86588 58.9204C5.0884 58.8657 5.19471 58.7516 5.20721 58.5254C5.26662 57.478 5.30935 56.4301 5.21086 55.3831C5.18686 55.1764 5.12948 54.9749 5.04098 54.7865C4.77261 54.1934 4.16864 53.9459 3.47191 54.1241C3.14101 54.2086 2.84241 54.3602 2.55997 54.5514C2.49838 54.5894 2.44779 54.6428 2.41323 54.7063C2.37867 54.7698 2.36135 54.8413 2.36299 54.9136C2.36299 55.9584 2.36664 57.0033 2.36976 58.0476L2.3755 58.4504C2.38175 58.7313 2.50108 58.8793 2.77988 58.9397C2.95914 58.9804 3.14049 59.008 3.34372 59.0455Z" fill="white"/>
<path fill-rule="evenodd" clip-rule="evenodd" d="M34.849 53.2284C34.9298 53.6213 34.9283 53.9746 34.6396 54.2425C34.353 54.5087 33.9903 54.4191 33.6364 54.3597C33.6693 54.5463 33.7057 54.7047 33.7235 54.8652C33.8522 56.058 33.3389 56.9434 32.2326 57.4494C31.8146 57.6401 31.3712 57.711 30.9183 57.7475C30.6932 57.7652 30.4962 57.9371 30.4748 58.1221C30.453 58.3097 30.5707 58.5025 30.8063 58.5588C31.084 58.625 31.3738 58.6438 31.6588 58.6766C32.2706 58.7464 32.8892 58.7782 33.4936 58.8876C34.4077 59.0523 34.9178 59.8501 34.7568 60.7683C34.6135 61.5854 34.1403 62.18 33.4806 62.636C32.3691 63.4062 31.1497 63.6313 29.8511 63.2384C29.1085 63.0133 28.5848 62.525 28.4039 61.735C28.3133 61.3395 28.4097 60.9815 28.7072 60.7131C29.0611 60.3952 29.4462 60.1117 29.8167 59.8116L29.9365 59.6912L29.799 59.5948C29.4212 59.4155 29.1189 59.1701 29.0017 58.7438C28.9615 58.5995 29.0032 58.5046 29.1257 58.4306C29.3341 58.305 29.5415 58.1774 29.7474 58.0476C29.8443 57.9872 29.9402 57.9246 30.0303 57.8548C30.1533 57.761 30.1424 57.6912 29.9954 57.637C29.6536 57.5109 29.3498 57.328 29.1142 57.0466C28.7208 56.577 28.6093 56.0179 28.6416 55.4275C28.6921 54.5051 29.1929 53.8975 30.0069 53.5067C30.9746 53.0423 31.9454 53.0132 32.9319 53.4363C33.2967 53.5926 33.6812 53.626 34.0726 53.5989C34.3649 53.578 34.6203 53.4676 34.849 53.2284ZM31.2831 59.8366C30.5567 59.8303 30.3289 59.92 29.9027 60.354C29.4253 60.8408 29.4279 61.5156 29.9042 62.0044C30.2659 62.3749 30.7172 62.5484 31.219 62.6006C31.8052 62.661 32.3826 62.6365 32.9152 62.3431C33.4832 62.0289 33.7657 61.4453 33.638 60.8574C33.5322 60.3723 33.1747 60.1503 32.7396 60.0226C32.2445 59.8778 31.7328 59.8501 31.2831 59.8366ZM29.8563 55.1945C29.8829 55.3962 29.8938 55.6005 29.9386 55.798C30.0548 56.3097 30.2773 56.7594 30.7865 56.9872C31.3842 57.2555 32.1476 57.1404 32.4092 56.3014C32.5879 55.743 32.5671 55.1399 32.3503 54.5952C32.2585 54.3463 32.0931 54.1311 31.8761 53.9783C31.3571 53.6161 30.4206 53.5681 30.0392 54.3686C29.9152 54.6286 29.8667 54.9053 29.8563 55.1945Z" fill="white"/>
<path fill-rule="evenodd" clip-rule="evenodd" d="M22.5243 53.0997C22.5435 53.1888 22.5821 53.2899 22.5831 53.3915C22.5847 53.5848 22.5639 53.7782 22.5529 53.9715V54.1393L22.7165 54.0142C23.1647 53.6453 23.6462 53.331 24.2069 53.1617C25.2189 52.8568 26.2299 53.4108 26.5597 54.4415C26.6848 54.8334 26.7343 55.2362 26.739 55.6458C26.7494 56.5557 26.7557 57.4655 26.7651 58.3754C26.7682 58.7021 26.8057 58.7605 27.1147 58.8548C27.2906 58.9073 27.4699 58.9472 27.6515 58.9742C27.751 58.9898 27.7937 59.0289 27.7885 59.1263L27.7896 59.216C27.7859 59.5927 27.7599 59.6099 27.3946 59.6089C26.5201 59.6073 25.6462 59.6125 24.7718 59.6198C24.5112 59.6219 24.5107 59.6297 24.4847 59.3723L24.4795 59.2243C24.4956 59.0023 24.5008 59.0044 24.7192 58.9721C24.8661 58.9502 25.012 58.9163 25.1553 58.8788C25.3028 58.8407 25.3737 58.7318 25.3935 58.5859C25.4034 58.5119 25.4164 58.4379 25.4159 58.3639C25.4034 57.3697 25.4195 56.3743 25.3653 55.3816C25.3216 54.5786 24.7087 54.1002 23.9026 54.1549C23.514 54.1818 23.1404 54.3159 22.8234 54.5421C22.6082 54.6927 22.5649 54.91 22.5659 55.144C22.5701 56.0736 22.579 57.0033 22.5889 57.9335C22.591 58.1373 22.5967 58.341 22.616 58.5432C22.6363 58.7641 22.7139 58.8533 22.9307 58.9012C23.1381 58.9471 23.3497 58.9736 23.5712 59.0106L23.5899 59.1816C23.5972 59.5802 23.5555 59.6099 23.1683 59.6083C22.2642 59.6047 21.3601 59.6104 20.4565 59.6203C20.3142 59.6224 20.2538 59.5776 20.2574 59.439L20.2553 59.3796C20.2319 59.0205 20.2423 59.007 20.5821 58.9486L20.7426 58.9163C21.1105 58.8335 21.2048 58.7355 21.21 58.3618C21.2272 57.1784 21.2335 55.9955 21.2454 54.812C21.247 54.6422 21.1829 54.5103 21.0245 54.44C20.8022 54.3426 20.5786 54.2481 20.3538 54.1565C20.2298 54.1054 20.0881 54.0731 20.0834 53.9017C20.0802 53.7808 20.2095 53.6739 20.3861 53.638C20.741 53.5661 21.099 53.5061 21.4497 53.4181C21.7989 53.331 22.1418 53.2143 22.5243 53.0997Z" fill="white"/>
<path fill-rule="evenodd" clip-rule="evenodd" d="M42.0737 56.1909C42.0571 57.2962 41.7699 58.1899 40.9883 58.8605C39.9981 59.7115 38.4536 60.0007 37.1909 59.3644C36.6521 59.0929 36.2561 58.6766 35.9981 58.1362C35.6026 57.305 35.5036 56.4311 35.7099 55.5358C35.9142 54.6505 36.4504 54.009 37.2529 53.5937C38.0784 53.1669 38.9476 53.0001 39.8642 53.2242C41.0237 53.5072 41.857 54.4525 42.0227 55.6562C42.0524 55.8673 42.0638 56.0809 42.0737 56.1909ZM40.7308 56.7896L40.686 56.7844C40.686 56.6802 40.6917 56.576 40.685 56.4718C40.6469 55.8225 40.501 55.2039 40.1248 54.6604C39.7678 54.1455 39.2816 53.8417 38.649 53.7974C37.9408 53.7474 37.3457 54.1434 37.1367 54.8667C36.823 55.9527 36.9293 57.0111 37.4807 58.0059C37.7209 58.4395 38.0768 58.7594 38.5536 58.9278C39.488 59.2566 40.3165 58.8308 40.5599 57.8741C40.6495 57.5208 40.6756 57.1513 40.7308 56.7896Z" fill="white"/>
<path fill-rule="evenodd" clip-rule="evenodd" d="M19.1209 56.2763C19.1016 57.0695 18.9145 57.8027 18.4247 58.44C17.8999 59.1226 17.1787 59.4874 16.3585 59.6411C15.3887 59.8225 14.4778 59.6578 13.6987 59.0069C13.3287 58.6974 13.076 58.3008 12.9092 57.8496C12.6356 57.1096 12.5674 56.3514 12.7357 55.5786C12.9155 54.7515 13.3824 54.1194 14.1062 53.6953C14.9431 53.2059 15.8462 52.9876 16.8108 53.2075C18.051 53.491 18.767 54.2992 19.0318 55.5228C19.0849 55.7698 19.0922 56.0251 19.1209 56.2763ZM17.7629 56.7995L17.7269 56.7943V56.6453C17.7066 55.9178 17.5643 55.2247 17.1302 54.6202C16.8087 54.1716 16.3783 53.8902 15.8264 53.8115C14.927 53.6833 14.3392 54.2169 14.1443 54.9418C13.89 55.8886 13.9697 56.824 14.3631 57.7219C14.6086 58.2816 14.9963 58.7177 15.5919 58.9293C16.5205 59.2592 17.3616 58.8225 17.5966 57.8694C17.6831 57.5207 17.7092 57.157 17.7629 56.7995Z" fill="white"/>
<path fill-rule="evenodd" clip-rule="evenodd" d="M40.7694 15.8433C41.4088 17.6917 41.8684 19.5786 42.0201 21.5339C42.2077 23.9601 42.1222 26.3698 41.6105 28.7559L41.5448 28.9467C41.3843 28.9472 41.2207 28.9269 41.0638 28.9513C39.7386 29.1598 38.415 29.3755 37.0909 29.5902C35.7219 29.8122 34.3519 30.0254 32.9856 30.2619C32.5014 30.3453 31.9022 30.2458 31.7067 30.9149L31.6129 30.9467L31.6791 26.9456L31.6119 17.2915L32.2497 17.1821C33.2925 17.0117 34.3352 16.8381 35.3795 16.6719C36.625 16.4744 37.8715 16.2816 39.118 16.0888C39.6683 16.0043 40.2191 15.9257 40.7694 15.8433Z" fill="#439934"/>
<path fill-rule="evenodd" clip-rule="evenodd" d="M30.2966 42.6113C29.6239 42.0328 28.9277 41.4799 28.2831 40.8713C24.8135 37.5987 22.2752 33.7461 21.025 29.1015C20.6806 27.8237 20.4513 26.5246 20.3773 25.2041C20.3252 24.2796 20.2507 23.3473 20.3163 22.4276C20.4898 19.982 20.8437 17.5599 21.5607 15.2039L21.6003 15.1492C21.6702 15.242 21.7702 15.3243 21.8056 15.4291C22.506 17.4906 23.2007 19.5542 23.8922 21.6193C26.0647 28.1077 28.2346 34.5976 30.4108 41.0849C30.4535 41.2116 30.5634 41.3153 30.6426 41.4294L30.2966 42.6113Z" fill="#45A538"/>
<path fill-rule="evenodd" clip-rule="evenodd" d="M40.7694 15.8434C40.2186 15.9252 39.6678 16.0044 39.118 16.0888C37.8715 16.2816 36.625 16.4744 35.3795 16.6719C34.3357 16.8377 33.293 17.0112 32.2497 17.1821L31.6119 17.2915L31.6067 16.8757C31.5853 16.5338 31.5499 16.192 31.5452 15.8501L31.4738 9.30812C31.4571 7.94333 31.4321 6.57854 31.4045 5.21428C31.3904 4.36633 31.3659 3.51859 31.331 2.67125C31.3102 2.21632 31.2367 1.76348 31.2075 1.30855C31.1903 1.04695 31.2133 0.78327 31.219 0.52063C31.5442 1.15065 31.8626 1.78537 32.1966 2.4107C32.7245 3.39925 33.5661 4.12776 34.3243 4.92245C37.3186 8.06527 39.4442 11.7172 40.7694 15.8434Z" fill="#46A037"/>
<path fill-rule="evenodd" clip-rule="evenodd" d="M31.6135 30.9467L31.7073 30.9149C31.9027 30.2458 32.502 30.3454 32.9861 30.262C34.3524 30.0254 35.7224 29.8123 37.0914 29.5903C38.4155 29.3761 39.7391 29.1603 41.0643 28.9514C41.2212 28.9269 41.3848 28.9472 41.5453 28.9467C41.2978 29.8305 41.1029 30.7336 40.7887 31.5929C40.4317 32.5674 40.0002 33.5189 39.5422 34.4517C38.856 35.8427 38.0071 37.1473 37.0132 38.3382C36.2493 39.2563 35.3978 40.1063 34.5447 40.9447C34.0726 41.408 33.5171 41.7858 32.9991 42.2027L32.8646 42.111L32.3816 41.6983L31.8818 40.6019C31.5404 39.3233 31.354 38.0083 31.3268 36.6852L31.3362 36.4622L31.4045 35.496C31.4269 35.1662 31.4571 34.8368 31.4712 34.5069C31.5212 33.3209 31.566 32.1338 31.6135 30.9467Z" fill="#409433"/>
<path fill-rule="evenodd" clip-rule="evenodd" d="M31.6135 30.9467C31.5666 32.1338 31.5217 33.3214 31.4712 34.5085C31.4571 34.8389 31.4274 35.1682 31.4045 35.4976L31.1002 35.6127C30.4238 33.6216 29.7468 31.6512 29.085 29.6762C27.9902 26.4083 26.9089 23.1358 25.8156 19.8668C24.9327 17.2286 24.0437 14.5925 23.1485 11.9585C23.1063 11.8355 22.9865 11.7386 22.9031 11.6296L24.852 8.04596C24.9193 8.16217 25.0073 8.27108 25.0495 8.39615C25.9511 11.0642 26.851 13.7328 27.7432 16.4041C28.9042 19.8799 30.0574 23.3572 31.2174 26.8336C31.2638 26.9722 31.3399 27.1004 31.4128 27.2562L31.6796 26.9456L31.6135 30.9467Z" fill="#4FAA41"/>
<path fill-rule="evenodd" clip-rule="evenodd" d="M22.9026 11.6296C22.9865 11.7386 23.1063 11.8355 23.148 11.9585C24.0433 14.5925 24.9323 17.2286 25.8151 19.8668C26.9083 23.1358 27.9897 26.4083 29.0845 29.6762C29.7463 31.6512 30.4232 33.621 31.0996 35.6127L31.404 35.4976L31.3357 36.4637L31.2737 36.6862C31.1679 37.7436 31.0788 38.803 30.9496 39.8582C30.8849 40.3871 30.7469 40.9062 30.6421 41.4294C30.5634 41.3152 30.4529 41.2115 30.4102 41.0849C28.2335 34.5976 26.0641 28.1077 23.8916 21.6193C23.2004 19.5545 22.5049 17.491 21.8051 15.4291C21.7697 15.3243 21.6696 15.242 21.5998 15.1492L22.9026 11.6296Z" fill="#4AA73C"/>
<path fill-rule="evenodd" clip-rule="evenodd" d="M31.6791 26.9456L31.4123 27.2562C31.3394 27.1004 31.2633 26.9722 31.2169 26.8336C30.0569 23.3573 28.9037 19.8799 27.7427 16.4041C26.8495 13.7332 25.9516 11.0639 25.049 8.39618C25.0068 8.27111 24.9188 8.1622 24.8515 8.04599L27.2617 4.87555C27.3378 4.97664 27.4461 5.0668 27.4852 5.18092C28.1543 7.1403 28.8172 9.10124 29.4769 11.0637C30.0929 12.897 30.6994 14.7324 31.3227 16.5625C31.3644 16.685 31.5098 16.7715 31.6067 16.8757L31.6119 17.2915L31.6791 26.9456Z" fill="#57AE47"/>
<path fill-rule="evenodd" clip-rule="evenodd" d="M31.6067 16.8757C31.5092 16.772 31.3644 16.6855 31.3227 16.5625C30.6999 14.7323 30.0929 12.897 29.4769 11.0637C28.8177 9.10118 28.1538 7.14024 27.4852 5.18089C27.4461 5.06676 27.3377 4.97661 27.2617 4.87551C28.0454 4.10792 28.8047 3.3127 29.6202 2.58054C30.3451 1.9302 30.9277 1.23295 30.9548 0.204797L31.0121 0L31.2185 0.520069C31.2132 0.782709 31.1898 1.04639 31.207 1.30799C31.2367 1.76292 31.3102 2.21576 31.3305 2.67069C31.3685 3.5175 31.3868 4.36587 31.404 5.21372C31.4316 6.57798 31.4566 7.94277 31.4733 9.30756L31.5447 15.8496C31.5499 16.192 31.5858 16.5338 31.6067 16.8757Z" fill="#60B24F"/>
<path fill-rule="evenodd" clip-rule="evenodd" d="M30.6426 41.4288C30.7474 40.9056 30.8855 40.3866 30.9501 39.8577C31.0793 38.803 31.1684 37.743 31.2742 36.6857L31.3008 36.6815L31.3269 36.6862C31.354 38.0093 31.5404 39.3243 31.8818 40.6029C31.8115 40.6956 31.713 40.7775 31.6755 40.8817C31.3863 41.6977 31.1132 42.5206 30.8224 43.3361C30.7828 43.4476 30.6713 43.5347 30.5937 43.6321L30.2961 42.6107L30.6426 41.4288Z" fill="#A9AA88"/>
<path fill-rule="evenodd" clip-rule="evenodd" d="M30.5937 43.6326C30.6713 43.5346 30.7828 43.4481 30.8224 43.3366C31.1132 42.5211 31.3863 41.6982 31.6755 40.8822C31.7125 40.778 31.8115 40.6962 31.8818 40.6034L32.3816 41.6998C32.2831 41.8395 32.1466 41.9661 32.0919 42.1219L31.1351 44.9317C31.0955 45.0448 30.9616 45.124 30.8709 45.2194L30.5937 43.6326Z" fill="#B6B598"/>
<path fill-rule="evenodd" clip-rule="evenodd" d="M30.8709 45.2189C30.961 45.1235 31.0955 45.0443 31.1351 44.9312L32.0919 42.1214C32.1461 41.9656 32.2831 41.8389 32.3816 41.6993L32.8652 42.1115C32.6317 42.3423 32.502 42.6091 32.5801 42.9463L32.4332 43.4273C32.3665 43.5096 32.2696 43.5815 32.2367 43.6759C31.9027 44.6326 31.5843 45.5946 31.2477 46.5508C31.2049 46.6717 31.0866 46.7671 31.0038 46.8744L30.8709 45.2189Z" fill="#C2C1A7"/>
<path fill-rule="evenodd" clip-rule="evenodd" d="M31.0033 46.874C31.0866 46.7666 31.2049 46.6713 31.2471 46.5504C31.5838 45.5941 31.9027 44.6322 32.2362 43.6754C32.269 43.5811 32.366 43.5097 32.4327 43.4268L32.2299 45.6342C32.1758 45.6968 32.0976 45.7515 32.0715 45.8239L31.3972 47.7562C31.3498 47.888 31.2591 48.0058 31.1882 48.1293C31.1252 48.047 31.0126 47.9673 31.0074 47.8818C30.9876 47.5472 31.0017 47.2101 31.0033 46.874Z" fill="#CECDB7"/>
<path fill-rule="evenodd" clip-rule="evenodd" d="M31.1888 48.1298C31.2596 48.0063 31.3503 47.8886 31.3977 47.7567L32.072 45.8245C32.0981 45.7515 32.1768 45.6973 32.2305 45.6348L32.2357 47.0835L31.7505 48.3273L31.1888 48.1298Z" fill="#DBDAC7"/>
<path fill-rule="evenodd" clip-rule="evenodd" d="M31.7505 48.3273L32.2357 47.0834L32.3357 48.5551L31.7505 48.3273Z" fill="#EBE9DC"/>
<path fill-rule="evenodd" clip-rule="evenodd" d="M32.5796 42.9463C32.502 42.6097 32.6312 42.3429 32.8647 42.1115L32.9991 42.2032L32.5796 42.9463Z" fill="#CECDB7"/>
<path fill-rule="evenodd" clip-rule="evenodd" d="M31.3269 36.6867L31.3008 36.682L31.2742 36.6862L31.3362 36.4637L31.3269 36.6867Z" fill="#4FAA41"/>
</svg>
