<svg width="63" height="33" viewBox="0 0 63 33" fill="none" xmlns="http://www.w3.org/2000/svg">
<path fill-rule="evenodd" clip-rule="evenodd" d="M0.00357273 29.7036H2.07591V21.4939L5.31232 28.6517C5.67891 29.5121 6.20556 29.8308 7.22529 29.8308C8.24502 29.8308 8.74024 29.5117 9.11898 28.6517L12.3393 21.4939V29.7036H14.4277V21.4939C14.4277 20.6972 14.1087 20.3138 13.4391 20.1066C11.8609 19.6285 10.8086 20.043 10.3306 21.1106L7.15848 28.1887L4.0975 21.1106C3.63516 20.043 2.56683 19.6285 0.972924 20.1066C0.319068 20.3138 0.000357102 20.6968 0.000357102 21.4939L0 29.7036H0.00357273ZM16.1528 23.0243H18.2412V27.5359C18.2254 27.7906 18.3208 28.3648 19.456 28.3802C20.0455 28.3962 23.9515 28.3802 23.983 28.3802V22.9921H26.0714V30.3732C26.0714 32.1904 23.8204 32.5884 22.7714 32.6049H16.2042V31.2185H22.7882C24.1273 31.0749 23.968 30.4057 23.968 30.1824V29.64H19.5517C17.4951 29.6239 16.1717 28.7153 16.1563 27.6791V23.0235L16.1528 23.0243ZM60.9487 17.7952C59.6739 17.763 58.6849 17.8909 57.8559 18.2418C57.6173 18.3383 57.2342 18.3383 57.2028 18.6406C57.3304 18.7674 57.3457 18.975 57.4576 19.1508C57.6487 19.4699 57.9839 19.8997 58.2865 20.1226C58.6216 20.3781 58.9564 20.6329 59.3066 20.8562C59.9283 21.2385 60.6297 21.4618 61.2353 21.8445C61.5861 22.0678 61.9366 22.3547 62.2875 22.5941C62.4662 22.7216 62.5744 22.9292 62.7977 23.0085V22.9603C62.6863 22.8174 62.6541 22.6101 62.543 22.4501C62.3833 22.2911 62.2239 22.1471 62.0642 21.9881C61.6022 21.3664 61.028 20.824 60.4063 20.3781C59.8961 20.0272 58.7806 19.5492 58.5734 18.9596L58.542 18.9275C58.8921 18.8953 59.3066 18.7678 59.6417 18.672C60.1841 18.5291 60.6779 18.5605 61.2353 18.4172C61.4907 18.3529 61.7455 18.2736 62.001 18.1939V18.051C61.7141 17.7641 61.5068 17.3814 61.2042 17.1106C60.3913 16.4092 59.4981 15.7236 58.5734 15.1498C58.0793 14.831 57.4415 14.6234 56.9155 14.353C56.7237 14.2572 56.4053 14.2093 56.2938 14.05C56.0062 13.6998 55.8472 13.2371 55.64 12.8223C55.178 11.9455 54.7314 10.9733 54.333 10.0486C54.0461 9.4269 53.8703 8.8052 53.5201 8.23138C51.878 5.52127 50.0922 3.87948 47.3503 2.26913C46.7607 1.93434 46.0594 1.79035 45.3137 1.61528L44.1182 1.55096C43.8627 1.43949 43.6079 1.1365 43.3846 0.992862C42.476 0.41904 40.1325 -0.82436 39.4626 0.817785C39.032 1.85395 40.1003 2.87404 40.463 3.40034C40.7345 3.76693 41.0847 4.1814 41.2766 4.59586C41.3838 4.86669 41.4195 5.15396 41.5313 5.44087C41.7861 6.14225 42.0255 6.92366 42.3603 7.57752C42.5389 7.91231 42.7265 8.26353 42.9498 8.56616C43.0774 8.74124 43.3007 8.82128 43.3482 9.10819C43.1249 9.42725 43.1095 9.90496 42.982 10.3041C42.4078 12.1056 42.6311 14.3373 43.4439 15.66C43.6994 16.0584 44.3015 16.9355 45.1182 16.6004C45.8357 16.3135 45.6756 15.4049 45.8829 14.6077C45.9311 14.4166 45.8989 14.289 45.9943 14.1611V14.1933L46.6482 15.5163C47.1423 16.2974 48.0034 17.1106 48.7205 17.653C49.1028 17.9399 49.4058 18.4344 49.8839 18.6095V18.5612H49.8525C49.7567 18.4183 49.6131 18.354 49.4855 18.2425C49.1986 17.9556 48.8799 17.6047 48.6566 17.286C47.9874 16.3935 47.3978 15.4049 46.8715 14.3848C46.616 13.8906 46.3927 13.3486 46.1862 12.8545C46.0897 12.663 46.0897 12.3757 45.9307 12.2806C45.6914 12.6308 45.3412 12.9345 45.1651 13.3647C44.8621 14.05 44.8306 14.895 44.7191 15.7718C44.6548 15.7879 44.6834 15.7718 44.6548 15.804C44.1453 15.6768 43.9695 15.1501 43.7784 14.7042C43.3003 13.5723 43.2203 11.7551 43.6347 10.4477C43.7462 10.1129 44.225 9.06067 44.0338 8.74195C43.9374 8.43897 43.6194 8.26389 43.4436 8.0245C43.2364 7.72151 43.0138 7.3392 42.8701 7.00441C42.4878 6.11116 42.2967 5.12324 41.8818 4.23035C41.69 3.81588 41.3555 3.38533 41.0843 3.00302C40.7814 2.57248 40.4473 2.26949 40.2079 1.75962C40.1282 1.58455 40.0167 1.29728 40.1443 1.10577C40.1757 0.978212 40.24 0.930692 40.3669 0.898535C40.5741 0.723459 41.1644 0.946412 41.3716 1.04145C41.9612 1.28084 42.4553 1.5038 42.9494 1.83823C43.1728 1.99759 43.4121 2.30057 43.6991 2.38061H44.0342C44.5444 2.49209 45.1179 2.41277 45.5956 2.55569C46.4406 2.82723 47.2056 3.22526 47.8916 3.65617C49.9797 4.97924 51.7018 6.86042 52.8652 9.10854C53.0564 9.47513 53.136 9.80992 53.3118 10.1926C53.647 10.974 54.0614 11.7708 54.3955 12.5365C54.7307 13.2857 55.0494 14.0514 55.5274 14.6731C55.7668 15.0079 56.7229 15.183 57.1531 15.3584C57.4722 15.5013 57.966 15.63 58.2536 15.805C58.7953 16.1398 59.3373 16.5225 59.8472 16.8891C60.1019 17.0799 60.8994 17.4786 60.9469 17.7966L60.9487 17.7952ZM44.6916 3.942C44.4714 3.94006 44.2518 3.96684 44.0385 4.02168V4.05384H44.0699C44.1975 4.30895 44.4208 4.48438 44.5802 4.7077L44.9471 5.47303L44.9785 5.44087C45.2019 5.28152 45.3137 5.02641 45.3137 4.6441C45.2179 4.53262 45.2022 4.42078 45.1225 4.30931C45.0268 4.14995 44.8195 4.06992 44.6916 3.94272V3.942Z" fill="#00678C"/>
<path fill-rule="evenodd" clip-rule="evenodd" d="M27.6628 29.7036H33.6568C34.3582 29.7036 35.0281 29.5607 35.5698 29.3052C36.4784 28.8908 36.909 28.3334 36.909 27.5999V26.0695C36.909 25.48 36.4148 24.9215 35.4269 24.5392C34.9167 24.3481 34.2789 24.2362 33.6572 24.2362H31.1382C30.2932 24.2362 29.8948 23.9808 29.783 23.4234C29.7673 23.3598 29.7673 23.2958 29.7673 23.2322V22.2915C29.7673 22.2432 29.7673 22.18 29.783 22.1164C29.8945 21.6858 30.1178 21.574 30.8549 21.4947H36.9922V20.1073H31.1575C30.3125 20.1073 29.8662 20.1555 29.4675 20.2831C28.2398 20.6654 27.6978 21.2714 27.6978 22.339V23.5513C27.6978 24.491 28.75 25.2888 30.5355 25.48C30.7266 25.4961 30.9339 25.4961 31.1411 25.4961H33.2935C33.3731 25.4961 33.4524 25.4961 33.516 25.5122C34.1699 25.5758 34.4568 25.6872 34.648 25.9259C34.7755 26.0535 34.8077 26.1653 34.8077 26.3089V27.5202C34.8077 27.6631 34.7119 27.8553 34.5208 28.0143C34.3296 28.1733 34.0259 28.2852 33.6275 28.3012C33.5478 28.3012 33.5007 28.3173 33.4203 28.3173H27.6628V29.7036ZM49.885 27.2969C49.885 28.7153 50.9569 29.5121 53.0899 29.6722C53.2972 29.6883 53.4883 29.7036 53.6956 29.7036H59.1158V28.3173H53.648C52.4357 28.3173 51.9737 28.0143 51.9737 27.2811V20.1073H49.881V27.2972L49.885 27.2969ZM38.2317 27.3601V22.4187C38.2317 21.1592 39.1242 20.3935 40.8625 20.1548C41.0536 20.1387 41.2448 20.1227 41.4199 20.1227H45.373C45.5802 20.1227 45.756 20.1387 45.9633 20.1548C47.7008 20.3935 48.5773 21.1588 48.5773 22.4187V27.3601C48.5773 28.3802 48.211 28.9226 47.3496 29.2895L49.3898 31.1382H46.983L45.3251 29.64L43.6508 29.7358H41.4191C41.0102 29.7337 40.6031 29.6803 40.2075 29.5768C38.8855 29.2095 38.2317 28.5085 38.2317 27.3601ZM40.4791 27.2493C40.4791 27.3129 40.5148 27.3762 40.5273 27.4566C40.6388 28.03 41.1805 28.3491 42.0094 28.3491H43.8909L42.1695 26.7866H44.5762L46.0905 28.158C46.3781 27.9982 46.5532 27.7749 46.6168 27.488C46.6328 27.4244 46.6328 27.3451 46.6328 27.2808V22.5459C46.6328 22.4823 46.6328 22.419 46.6168 22.3547C46.5053 21.813 45.9636 21.5104 45.1504 21.5104H42.0098C41.0851 21.5104 40.4794 21.9088 40.4794 22.5459L40.4791 27.2493Z" fill="#CE8B2C"/>
</svg>
