<svg width="49" height="54" viewBox="0 0 49 54" fill="none" xmlns="http://www.w3.org/2000/svg">
<path d="M22.2892 0.576073C23.6281 -0.190293 25.372 -0.193754 26.7097 0.576073C33.4397 4.37886 40.1717 8.17569 46.9006 11.9808C48.1662 12.6937 49.0127 14.1022 48.9999 15.5605V38.4395C49.0093 39.9582 48.0791 41.4004 46.7438 42.0971C40.036 45.8789 33.3316 49.6654 26.6249 53.4472C25.2583 54.2286 23.4794 54.1684 22.1555 53.323C20.1445 52.1572 18.13 50.9971 16.1188 49.8325C15.7079 49.5875 15.2446 49.3925 14.9544 48.994C15.2109 48.6482 15.6696 48.6052 16.0423 48.4542C16.8817 48.1873 17.6527 47.7588 18.4239 47.343C18.6189 47.2095 18.857 47.2607 19.0439 47.3801C20.7636 48.3661 22.468 49.3808 24.1935 50.3573C24.5615 50.5698 24.9343 50.2877 25.2489 50.1123C31.8313 46.392 38.4219 42.6858 45.0032 38.9643C45.2471 38.847 45.3819 38.5882 45.3621 38.3211C45.3667 30.7738 45.3632 23.2251 45.3644 15.6778C45.3923 15.3747 45.2169 15.0961 44.9428 14.972C38.2582 11.2075 31.5771 7.43721 24.8937 3.67173C24.7779 3.59212 24.6407 3.54941 24.5002 3.5492C24.3597 3.54899 24.2224 3.59131 24.1063 3.67057C17.4229 7.43721 10.7429 11.211 4.0595 14.9753C3.78641 15.0995 3.60314 15.3736 3.63564 15.6778C3.63679 23.2251 3.63564 30.7738 3.63564 38.3222C3.62405 38.4525 3.65268 38.5833 3.71766 38.6969C3.78265 38.8104 3.88087 38.9014 3.99911 38.9574C5.78262 39.9688 7.56843 40.973 9.35309 41.981C10.3585 42.5221 11.593 42.8437 12.7007 42.429C13.6782 42.0785 14.3634 41.0809 14.3448 40.043C14.354 32.5398 14.3401 25.0353 14.3517 17.5332C14.3273 17.2001 14.6432 16.9249 14.9671 16.9563C15.824 16.9505 16.6821 16.9448 17.5391 16.9586C17.8968 16.9505 18.1429 17.3092 18.0987 17.6448C18.0952 25.1955 18.1079 32.7465 18.0929 40.2973C18.0952 42.3096 17.2685 44.4993 15.4071 45.4839C13.114 46.6718 10.2797 46.4199 8.01421 45.2808C6.05301 44.302 4.18142 43.1468 2.25503 42.0981C0.916342 41.4052 -0.00925779 39.9573 0.000165523 38.4397V15.5605C-0.0138733 14.072 0.866341 12.6379 2.17137 11.9354C8.87808 8.15049 15.5836 4.36271 22.2892 0.576073Z" fill="#8CC84B"/>
<path d="M28.1401 16.4246C31.0652 16.2363 34.1966 16.313 36.8288 17.754C38.8667 18.8583 39.9966 21.1758 40.0325 23.4399C39.9756 23.7453 39.6564 23.9138 39.3648 23.8928C38.5161 23.8917 37.6673 23.9044 36.8186 23.887C36.4586 23.9009 36.2493 23.569 36.2042 23.2507C35.9603 22.1674 35.3695 21.0945 34.3499 20.572C32.7846 19.7883 30.9698 19.8277 29.263 19.8441C28.017 19.9102 26.6772 20.0181 25.6216 20.7508C24.8112 21.3058 24.565 22.4262 24.8543 23.3286C25.1269 23.9765 25.8749 24.1855 26.4868 24.3782C30.0119 25.3002 33.7474 25.2084 37.2051 26.4217C38.6367 26.9164 40.0371 27.8779 40.5271 29.3768C41.1681 31.3857 40.8872 33.7869 39.4579 35.3996C38.2988 36.7268 36.6107 37.4491 34.927 37.8414C32.6871 38.3409 30.3627 38.3536 28.088 38.1318C25.9491 37.888 23.7233 37.326 22.0721 35.8687C20.6601 34.6427 19.9705 32.7325 20.0389 30.8888C20.0553 30.5774 20.3653 30.3603 20.6636 30.3859C21.5182 30.3789 22.3728 30.3766 23.2275 30.387C23.5688 30.3626 23.8219 30.6576 23.8394 30.9793C23.9971 32.0115 24.385 33.0948 25.285 33.7067C27.022 34.8273 29.2015 34.7506 31.1904 34.7819C32.8381 34.7089 34.6878 34.6867 36.0324 33.5977C36.7419 32.9765 36.9521 31.9372 36.7603 31.0432C36.5526 30.2884 35.763 29.9366 35.0849 29.7066C31.605 28.6058 27.8278 29.0053 24.3815 27.7604C22.9825 27.266 21.6296 26.3311 21.092 24.8938C20.342 22.8595 20.6857 20.3433 22.2648 18.785C23.8044 17.235 26.027 16.638 28.1401 16.4244V16.4246Z" fill="#8CC84B"/>
</svg>
