<svg width="64" height="33" viewBox="0 0 64 33" fill="none" xmlns="http://www.w3.org/2000/svg">
<path d="M0 16.3468C0 25.3747 14.1057 32.6936 31.5052 32.6936C48.9048 32.6936 63.0104 25.3747 63.0104 16.3468C63.0104 7.31886 48.9048 0 31.5052 0C14.1057 0 0 7.31897 0 16.3468Z" fill="url(#paint0_radial_57_90)"/>
<path d="M31.5052 31.4797C48.2253 31.4797 61.7798 24.7045 61.7798 16.3468C61.7798 7.98905 48.2253 1.21384 31.5052 1.21384C14.7852 1.21384 1.23067 7.98905 1.23067 16.3468C1.23067 24.7045 14.7852 31.4797 31.5052 31.4797Z" fill="#777BB3"/>
<path d="M17.1171 18.223C18.4919 18.223 19.5182 17.9729 20.1675 17.4801C20.81 16.9923 21.2537 16.1469 21.4863 14.9677C21.7031 13.8656 21.6205 13.096 21.2408 12.6807C20.8526 12.2565 20.0132 12.0414 18.7461 12.0414H16.5491L15.331 18.2231H17.1169L17.1171 18.223ZM9.93084 25.8378C9.82885 25.8378 9.73199 25.7929 9.66715 25.7151C9.63509 25.6767 9.61203 25.6318 9.59962 25.5836C9.58721 25.5355 9.58576 25.4852 9.59537 25.4363L12.8234 9.0547C12.8385 8.97788 12.8803 8.90866 12.9415 8.85889C13.0028 8.80912 13.0796 8.78191 13.159 8.78191H20.1161C22.3026 8.78191 23.9301 9.36637 24.953 10.5226C25.9814 11.6836 26.299 13.3068 25.8969 15.3466C25.7332 16.1777 25.4518 16.9494 25.0605 17.6406C24.6685 18.3324 24.1507 18.9725 23.521 19.5434C22.7671 20.2394 21.9138 20.7441 20.9872 21.041C20.0752 21.334 18.9042 21.4827 17.5062 21.4827H14.6891L13.8846 25.5651C13.8695 25.642 13.8277 25.7112 13.7665 25.761C13.7053 25.8108 13.6285 25.838 13.5491 25.838H9.93084V25.8378Z" fill="black"/>
<path d="M16.831 12.3784H18.7463C20.2756 12.3784 20.8069 12.7095 20.9874 12.9067C21.2869 13.2342 21.3434 13.9248 21.1509 14.9036C20.9347 15.9995 20.5338 16.7765 19.9592 17.2128C19.371 17.6595 18.4147 17.8858 17.1173 17.8858H15.7458L16.8309 12.3784H16.831ZM20.1163 8.44461H13.1591C13.0004 8.44463 12.8467 8.49908 12.7242 8.59864C12.6018 8.6982 12.5183 8.83666 12.488 8.99029L9.26001 25.3722C9.24079 25.4698 9.24369 25.5704 9.26852 25.6668C9.29334 25.7632 9.33947 25.8529 9.40361 25.9297C9.46774 26.0064 9.54829 26.0682 9.63948 26.1107C9.73067 26.1531 9.83024 26.1751 9.93107 26.1751H13.549C13.7077 26.1751 13.8615 26.1207 13.9839 26.0211C14.1064 25.9216 14.1899 25.7831 14.2202 25.6294L14.9709 21.8198H17.5063C18.94 21.8198 20.147 21.6656 21.0935 21.3615C22.0666 21.0497 22.9623 20.5208 23.7547 19.7898C24.4102 19.195 24.9512 18.5274 25.3591 17.8052C25.7671 17.0831 26.0622 16.2773 26.2329 15.411C26.6563 13.2638 26.3123 11.5444 25.2108 10.3008C24.12 9.06919 22.406 8.44472 20.1165 8.44472M14.9165 18.5603H17.1173C18.5759 18.5603 19.6625 18.2894 20.3763 17.7472C21.0901 17.2051 21.5719 16.3002 21.8221 15.0321C22.0614 13.8146 21.9525 12.9555 21.4951 12.4549C21.0377 11.9543 20.1208 11.7041 18.7466 11.7041H16.2677L14.9167 18.5602M20.1166 9.11898C22.2095 9.11898 23.7364 9.66073 24.6961 10.7442C25.6558 11.8277 25.9446 13.3403 25.5618 15.2822C25.4042 16.0821 25.1376 16.8135 24.7624 17.4761C24.3871 18.1388 23.8961 18.7454 23.2899 19.2952C22.5675 19.962 21.7649 20.4371 20.8818 20.7203C19.9987 21.0041 18.874 21.1454 17.5065 21.1454H14.4075L13.5495 25.5007H9.93152L13.1591 9.11898H20.1164" fill="white"/>
<path d="M34.1925 21.4825C34.0904 21.4825 33.9937 21.4375 33.9289 21.3598C33.864 21.282 33.8375 21.1799 33.8571 21.081L35.2849 13.8326C35.4207 13.1433 35.3872 12.6485 35.1906 12.4395C35.0703 12.3117 34.7088 12.0974 33.6401 12.0974H31.0532L29.2579 21.2095C29.2427 21.2863 29.201 21.3556 29.1398 21.4054C29.0785 21.4552 29.0016 21.4824 28.9223 21.4824H25.3328C25.2824 21.4824 25.2326 21.4714 25.187 21.4502C25.1414 21.429 25.1011 21.3981 25.0691 21.3597C25.037 21.3213 25.0139 21.2764 25.0015 21.2282C24.9891 21.18 24.9876 21.1297 24.9972 21.0809L28.2253 4.69926C28.2404 4.62244 28.2822 4.55322 28.3434 4.50345C28.4046 4.45368 28.4815 4.42647 28.5608 4.42648H32.1503C32.2007 4.42648 32.2505 4.43748 32.2961 4.45869C32.3417 4.4799 32.382 4.51079 32.4141 4.54916C32.4461 4.58753 32.4692 4.63243 32.4816 4.68063C32.494 4.72883 32.4955 4.77914 32.4859 4.82796L31.7069 8.7818H34.4898C36.6099 8.7818 38.0474 9.15046 38.8849 9.9089C39.7396 10.6826 40.0047 11.9197 39.6765 13.5865L38.1747 21.2097C38.1595 21.2865 38.1178 21.3558 38.0566 21.4056C37.9953 21.4554 37.9184 21.4826 37.8391 21.4826H34.1926L34.1925 21.4825Z" fill="black"/>
<path d="M32.1502 4.0893H28.5607C28.402 4.08929 28.2483 4.14374 28.1258 4.2433C28.0034 4.34286 27.9198 4.48133 27.8896 4.63498L24.6615 21.0166C24.6423 21.1143 24.6452 21.2149 24.6701 21.3113C24.6949 21.4077 24.741 21.4975 24.8052 21.5742C24.8693 21.6509 24.9499 21.7127 25.0411 21.7552C25.1323 21.7976 25.2319 21.8196 25.3327 21.8196H28.9222C29.0809 21.8196 29.2346 21.7651 29.3571 21.6656C29.4795 21.566 29.5631 21.4276 29.5934 21.2739L31.3349 12.4346H33.6401C34.707 12.4346 34.9309 12.6593 34.9399 12.669C35.0047 12.7376 35.0898 13.0557 34.9493 13.7682L33.5215 21.0166C33.5023 21.1143 33.5052 21.2149 33.53 21.3113C33.5548 21.4077 33.601 21.4975 33.6651 21.5742C33.7293 21.6509 33.8098 21.7127 33.901 21.7552C33.9922 21.7976 34.0918 21.8196 34.1927 21.8196H37.8391C37.9978 21.8196 38.1515 21.7651 38.274 21.6656C38.3964 21.566 38.48 21.4276 38.5103 21.2739L40.0121 13.6507C40.3646 11.8613 40.0631 10.5189 39.1165 9.66063C38.2131 8.84239 36.6998 8.44452 34.4901 8.44452H32.1217L32.8217 4.89226C32.841 4.79461 32.8381 4.69398 32.8132 4.59757C32.7884 4.50116 32.7423 4.41136 32.6781 4.3346C32.614 4.25785 32.5334 4.19604 32.4422 4.15361C32.351 4.11119 32.2514 4.08918 32.1505 4.08919M32.1505 4.76356L31.2925 9.11889H34.4902C36.5022 9.11889 37.89 9.46529 38.654 10.1572C39.4179 10.8491 39.6465 11.9713 39.3413 13.5221L37.8394 21.1452H34.193L35.6208 13.897C35.7833 13.0725 35.7236 12.5101 35.4414 12.2102C35.1593 11.9103 34.5588 11.7602 33.6404 11.7602H30.7714L28.9224 21.1452H25.3329L28.561 4.76356H32.1504" fill="white"/>
<path d="M45.356 18.223C46.7308 18.223 47.7572 17.9729 48.4065 17.4801C49.0489 16.9923 49.4926 16.1471 49.7253 14.9677C49.9422 13.8656 49.8596 13.096 49.4798 12.6807C49.0915 12.2565 48.2522 12.0414 46.985 12.0414H44.7881L43.5699 18.2231H45.3559L45.356 18.223ZM38.17 25.8378C38.068 25.8378 37.9712 25.7929 37.9063 25.7151C37.8742 25.6767 37.8511 25.6318 37.8387 25.5837C37.8263 25.5355 37.8248 25.4852 37.8344 25.4363L41.0624 9.0547C41.0776 8.97786 41.1194 8.90862 41.1806 8.85885C41.2419 8.80908 41.3188 8.78188 41.3981 8.78191H48.3552C50.5419 8.78191 52.1691 9.36637 53.1922 10.5226C54.2206 11.6836 54.5379 13.3066 54.136 15.3466C53.9722 16.1777 53.6908 16.9494 53.2994 17.6406C52.9074 18.3324 52.3896 18.9725 51.7599 19.5434C51.006 20.2394 50.1528 20.7441 49.2261 21.041C48.3142 21.334 47.1431 21.4827 45.7451 21.4827H42.9277L42.1235 25.5651C42.1084 25.642 42.0666 25.7113 42.0054 25.7611C41.9441 25.8109 41.8672 25.8381 41.7878 25.838H38.1699L38.17 25.8378Z" fill="black"/>
<path d="M45.07 12.3784H46.9853C48.5145 12.3784 49.0458 12.7095 49.2263 12.9067C49.526 13.2342 49.5824 13.9248 49.3899 14.9035C49.1736 15.9994 48.7726 16.7765 48.1981 17.2128C47.6099 17.6595 46.6537 17.8858 45.3562 17.8858H43.985L45.0701 12.3784H45.07ZM48.3552 8.44461H41.398C41.2393 8.44463 41.0856 8.49908 40.9632 8.59864C40.8407 8.6982 40.7572 8.83666 40.7269 8.99029L37.499 25.3722C37.4798 25.4698 37.4827 25.5704 37.5076 25.6668C37.5324 25.7632 37.5785 25.8529 37.6426 25.9297C37.7068 26.0064 37.7873 26.0682 37.8785 26.1107C37.9697 26.1531 38.0693 26.1751 38.1701 26.1751H41.7881C41.9467 26.1751 42.1005 26.1207 42.223 26.0211C42.3454 25.9216 42.4289 25.7831 42.4592 25.6294L43.2098 21.8198H45.7452C47.179 21.8198 48.3859 21.6656 49.3324 21.3615C50.3056 21.0497 51.2012 20.5208 51.9939 19.7896C52.6493 19.195 53.189 18.5274 53.5981 17.8052C54.0072 17.0831 54.3011 16.2773 54.4718 15.411C54.8952 13.2637 54.5513 11.5443 53.4497 10.3007C52.359 9.06919 50.645 8.44472 48.3554 8.44472M43.1556 18.5603H45.3562C46.8148 18.5603 47.9014 18.2894 48.6152 17.7472C49.329 17.2051 49.8108 16.3002 50.061 15.0321C50.3005 13.8146 50.1915 12.9555 49.734 12.4549C49.2765 11.9543 48.3597 11.7041 46.9855 11.7041H44.5066L43.1557 18.5602M48.3555 9.11898C50.4485 9.11898 51.9753 9.66073 52.935 10.7442C53.8947 11.8277 54.1835 13.3403 53.8007 15.2822C53.6431 16.0821 53.3765 16.8135 53.0013 17.4761C52.6261 18.1388 52.135 18.7454 51.5288 19.2952C50.8064 19.962 50.0038 20.4371 49.1207 20.7203C48.2376 21.0041 47.1129 21.1454 45.7455 21.1454H42.6464L41.7884 25.5007H38.1704L41.3985 9.11909H48.3556" fill="white"/>
<defs>
<radialGradient id="paint0_radial_57_90" cx="0" cy="0" r="1" gradientUnits="userSpaceOnUse" gradientTransform="translate(18.9159 5.74711) scale(41.3709 40.8061)">
<stop stop-color="#AEB2D5"/>
<stop offset="0.3" stop-color="#AEB2D5"/>
<stop offset="0.75" stop-color="#484C89"/>
<stop offset="1" stop-color="#484C89"/>
</radialGradient>
</defs>
</svg>
