<svg width="52" height="52" viewBox="0 0 52 52" fill="none" xmlns="http://www.w3.org/2000/svg">
<path fill-rule="evenodd" clip-rule="evenodd" d="M0 26L0 52H26L52 52V26L52 0L26 0H0L0 26Z" fill="#007ACC"/>
<path fill-rule="evenodd" clip-rule="evenodd" d="M11.4991 26.1725L11.4826 28.302H14.8668L18.2509 28.302V37.9179V47.5338H20.6445H23.0382V37.9179L23.0382 28.302H26.4223H29.8064V26.2138C29.8064 25.0582 29.7817 24.0925 29.7487 24.0677C29.7239 24.0347 25.6052 24.0182 20.6115 24.0265L11.5239 24.0512L11.4991 26.1725Z" fill="white"/>
<path fill-rule="evenodd" clip-rule="evenodd" d="M41.9588 23.9908C43.2795 24.3209 44.2865 24.907 45.2109 25.8644C45.6896 26.3762 46.3995 27.3089 46.4573 27.5317C46.4738 27.5977 44.2122 29.1165 42.842 29.9666C42.7925 29.9997 42.5944 29.785 42.3715 29.4549C41.703 28.4809 41.0014 28.06 39.9284 27.9857C38.3519 27.8784 37.3366 28.7038 37.3449 30.0822C37.3449 30.4866 37.4027 30.726 37.5677 31.0562C37.9144 31.7743 38.5582 32.2035 40.5804 33.0784C44.303 34.6797 45.896 35.7362 46.8865 37.2384C47.9925 38.9139 48.2401 41.5882 47.489 43.5774C46.6636 45.74 44.6166 47.2092 41.736 47.6962C40.8446 47.853 38.7315 47.8282 37.7741 47.6549C35.6858 47.2835 33.7049 46.2517 32.4833 44.8981C32.0046 44.3698 31.0719 42.9914 31.1296 42.8924C31.1544 42.8593 31.369 42.7273 31.6084 42.587C31.8395 42.4549 32.7144 41.9514 33.5398 41.4727L35.0338 40.606L35.3474 41.0682C35.7849 41.7368 36.7423 42.653 37.3201 42.9584C38.9792 43.8333 41.2573 43.7095 42.3798 42.7025C42.8585 42.265 43.0566 41.8111 43.0566 41.1425C43.0566 40.54 42.9823 40.2758 42.6687 39.8219C42.2642 39.2441 41.4388 38.7571 39.0947 37.7419C36.4122 36.5863 35.2566 35.8682 34.2001 34.7292C33.5893 34.0689 33.0115 33.0123 32.7722 32.1292C32.5741 31.3946 32.5246 29.5539 32.6814 28.8111C33.2344 26.2193 35.1906 24.4117 38.0134 23.8752C38.9296 23.7019 41.0592 23.7679 41.9588 23.9908Z" fill="white"/>
</svg>
