<svg width="59" height="58" viewBox="0 0 59 58" fill="none" xmlns="http://www.w3.org/2000/svg">
<path d="M8.4235 45.6409C8.08192 45.9328 7.66608 46.1243 7.22222 46.194C6.77835 46.2637 6.32384 46.2089 5.90922 46.0358L1.49399 44.1834C1.05361 43.9996 0.677088 43.6903 0.4114 43.294C0.145712 42.8976 0.00262725 42.4318 0 41.9547L0 16.0467C0.00258263 15.5695 0.145647 15.1037 0.411338 14.7073C0.677028 14.3109 1.05358 14.0015 1.49399 13.8178L5.90922 11.9959C6.32382 11.8227 6.77832 11.7679 7.22218 11.8376C7.66605 11.9073 8.0819 12.0987 8.4235 12.3906L9.41327 13.2104C9.21252 13.0661 8.97582 12.98 8.72926 12.9617C8.4827 12.9434 8.23588 12.9935 8.01601 13.1066C7.79615 13.2197 7.61179 13.3913 7.48328 13.6025C7.35477 13.8137 7.28711 14.0564 7.28775 14.3036V43.6976C7.28711 43.9448 7.35477 44.1874 7.48328 44.3986C7.61179 44.6099 7.79615 44.7815 8.01601 44.8946C8.23588 45.0076 8.4827 45.0578 8.72926 45.0395C8.97582 45.0211 9.21252 44.9351 9.41327 44.7907L8.4235 45.6409Z" fill="#52218A"/>
<path d="M1.49399 44.1836C1.05361 43.9999 0.677088 43.6906 0.4114 43.2942C0.145712 42.8979 0.00262725 42.4321 0 41.9549L0 41.7545C0.00299256 42.0349 0.0899525 42.308 0.249658 42.5385C0.409363 42.769 0.634483 42.9463 0.895967 43.0477C1.15745 43.149 1.4433 43.1696 1.71662 43.1069C1.98994 43.0441 2.23818 42.9009 2.42933 42.6958L40.0826 1.0645C40.6159 0.533913 41.3002 0.181365 42.0418 0.0552442C42.7834 -0.0708765 43.5459 0.0356116 44.2246 0.360093L56.237 6.14155C56.8558 6.43905 57.3779 6.90532 57.7433 7.48662C58.1086 8.06792 58.3023 8.74062 58.302 9.42719V9.5668C58.3017 9.13121 58.1777 8.70466 57.9446 8.33671C57.7115 7.96876 57.3788 7.67452 56.9851 7.48817C56.5914 7.30182 56.1528 7.23102 55.7205 7.284C55.2882 7.33698 54.8797 7.51155 54.5426 7.78745L9.41327 44.791L8.4235 45.6411C8.08192 45.933 7.66608 46.1245 7.22222 46.1942C6.77835 46.2639 6.32384 46.2092 5.90922 46.036L1.49399 44.1836Z" fill="#6C33AF"/>
<path d="M1.49399 13.8178C1.05358 14.0015 0.677028 14.3108 0.411338 14.7072C0.145647 15.1036 0.00258263 15.5695 0 16.0467L0 16.2471C0.00294775 15.9667 0.0898754 15.6935 0.249563 15.463C0.409251 15.2325 0.634369 15.0551 0.895862 14.9537C1.15736 14.8524 1.44322 14.8318 1.71656 14.8945C1.9899 14.9572 2.23817 15.1004 2.42933 15.3056L40.0826 56.9369C40.6158 57.4675 41.3002 57.8201 42.0418 57.9462C42.7834 58.0724 43.5459 57.9659 44.2246 57.6415L56.237 51.8598C56.8558 51.5623 57.3779 51.096 57.7433 50.5147C58.1086 49.9334 58.3023 49.2607 58.302 48.5742V48.4346C58.3017 48.8701 58.1777 49.2967 57.9446 49.6646C57.7115 50.0326 57.3788 50.3268 56.9851 50.5132C56.5914 50.6995 56.1528 50.7703 55.7205 50.7174C55.2882 50.6644 54.8797 50.4898 54.5426 50.2139L9.41327 13.2104L8.4235 12.3602C8.07886 12.0733 7.66156 11.8875 7.21779 11.8232C6.77403 11.7588 6.32112 11.8186 5.90922 11.9958L1.49399 13.8178Z" fill="#854CC7"/>
<path d="M44.2246 57.6415C43.5459 57.966 42.7834 58.0724 42.0418 57.9463C41.3002 57.8201 40.6158 57.4675 40.0826 56.9369C40.3819 57.234 40.7624 57.4359 41.1762 57.5173C41.59 57.5987 42.0186 57.5558 42.4081 57.3942C42.7976 57.2326 43.1306 56.9593 43.3652 56.6089C43.5998 56.2584 43.7255 55.8464 43.7265 55.4247V2.58853C43.7279 2.16579 43.6039 1.75212 43.3702 1.39982C43.1366 1.04753 42.8037 0.77242 42.4137 0.609278C42.0237 0.446136 41.5941 0.402285 41.1792 0.483268C40.7642 0.564252 40.3827 0.766433 40.0826 1.06425C40.6159 0.533669 41.3003 0.181121 42.0419 0.0550001C42.7834 -0.0711207 43.5459 0.0353674 44.2246 0.359848L56.2371 6.13539C56.8558 6.43287 57.3779 6.8991 57.7432 7.48036C58.1086 8.06162 58.3023 8.73426 58.302 9.4208V48.5804C58.3023 49.2669 58.1086 49.9396 57.7433 50.5209C57.378 51.1022 56.8558 51.5685 56.2371 51.866L44.2246 57.6415Z" fill="#B179F1"/>
<path d="M41.8378 57.9087C42.6407 58.0919 43.482 57.9977 44.2246 57.6415L56.237 51.866C56.8558 51.5685 57.3779 51.1022 57.7433 50.5209C58.1086 49.9396 58.3023 49.2669 58.302 48.5804V9.42078C58.3022 8.73425 58.1086 8.0616 57.7432 7.48035C57.3779 6.89909 56.8558 6.43286 56.237 6.13537L44.2246 0.359835C43.3746 -0.048806 42.3993 -0.111991 41.5037 0.183562C40.9682 0.363014 40.4817 0.664509 40.0826 1.06424L20.7216 22.4781L9.41327 13.2104L8.4235 12.3602C8.12576 12.1057 7.77088 11.9269 7.38912 11.8392C7.00735 11.7514 6.61003 11.7573 6.23102 11.8563C6.12007 11.8808 6.01216 11.9174 5.90922 11.9656L1.49399 13.8178C1.08074 13.9884 0.722596 14.2698 0.458998 14.6309C0.195399 14.9921 0.0365698 15.4189 0 15.8645L0 42.1368C0.0744717 43.0453 0.651342 43.8356 1.49399 44.1833L5.90922 46.0053C6.01216 46.0534 6.12007 46.0901 6.23102 46.1146C7.00034 46.3155 7.81907 46.1273 8.4235 45.6106L9.41327 44.7907L20.7216 35.5232L40.0826 56.9369C40.5652 57.4187 41.1733 57.7554 41.8378 57.9087ZM43.7265 16.66L28.6711 29.0007L43.7265 41.3411V16.66ZM7.28775 20.6621L14.8244 29.0007L7.28775 37.339V20.6621Z" fill="url(#paint0_linear_57_59)" fill-opacity="0.25"/>
<defs>
<linearGradient id="paint0_linear_57_59" x1="29.151" y1="0.00136501" x2="29.151" y2="57.9993" gradientUnits="userSpaceOnUse">
<stop stop-color="white"/>
<stop offset="1" stop-color="white" stop-opacity="0"/>
</linearGradient>
</defs>
</svg>
