<svg width="59" height="58" viewBox="0 0 59 58" fill="none" xmlns="http://www.w3.org/2000/svg">
<mask id="mask0_57_50" style="mask-type:alpha" maskUnits="userSpaceOnUse" x="0" y="0" width="59" height="58">
<path d="M41.3421 57.7521C41.806 57.933 42.3021 58.0164 42.7997 57.9973C43.2973 57.9782 43.7856 57.8569 44.2342 57.641L56.2373 51.8654C56.8555 51.5677 57.3771 51.1016 57.7422 50.5207C58.1072 49.9397 58.3008 49.2675 58.3007 48.5814V9.41855C58.3008 8.73247 58.1072 8.0603 57.7421 7.47939C57.3771 6.89847 56.8555 6.43239 56.2373 6.13479L44.2344 0.35899C43.5562 0.032626 42.7933 -0.0748317 42.0513 0.0514905C41.3093 0.177813 40.6249 0.531667 40.0929 1.06407L17.1143 22.028L7.105 14.4303C6.65351 14.0876 6.09628 13.9137 5.53 13.9389C4.96372 13.9641 4.42412 14.1867 4.00483 14.5681L0.794678 17.4884C-0.263863 18.4511 -0.265006 20.1165 0.791935 21.0808L9.4722 29L0.791935 36.9189C-0.265006 37.8835 -0.263863 39.5486 0.794678 40.5116L4.00483 43.4316C4.42409 43.8131 4.96367 44.0357 5.52996 44.0609C6.09624 44.0862 6.65348 43.9124 7.105 43.5697L17.1143 35.9717L40.0929 56.9356C40.4481 57.2915 40.8735 57.5695 41.3421 57.7521V57.7521ZM43.7344 15.765L26.2989 29L43.7344 42.2347V15.765Z" fill="white"/>
</mask>
<g mask="url(#mask0_57_50)">
<path d="M56.273 6.14379L44.2605 0.359988C43.5821 0.0333603 42.8189 -0.0743263 42.0766 0.0518296C41.3343 0.177986 40.6495 0.531746 40.1171 1.06416L0.792394 36.919C-0.265233 37.8836 -0.263861 39.5487 0.795138 40.5116L4.00734 43.4317C4.42698 43.8132 4.9669 44.0359 5.53351 44.0611C6.10012 44.0864 6.6577 43.9125 7.10958 43.5697L54.4655 7.64426C56.0542 6.43917 58.3361 7.57224 58.3361 9.56633V9.42686C58.3361 8.74092 58.1425 8.06891 57.7775 7.48812C57.4125 6.90733 56.891 6.44135 56.273 6.14379V6.14379Z" fill="#0065A9"/>
<path d="M56.273 51.856L44.2605 57.6398C43.5821 57.9664 42.8189 58.074 42.0766 57.9479C41.3343 57.8217 40.6496 57.468 40.1171 56.9357L0.792394 21.0808C-0.265233 20.1165 -0.263861 18.4512 0.795138 17.4884L4.00734 14.5682C4.42701 14.1866 4.96695 13.964 5.53356 13.9388C6.10017 13.9136 6.65772 14.0875 7.10958 14.4303L54.4655 50.3556C56.0542 51.5606 58.3361 50.4276 58.3361 48.4333V48.5729C58.3361 49.2589 58.1425 49.9309 57.7775 50.5117C57.4125 51.0925 56.891 51.5584 56.273 51.856V51.856Z" fill="#007ACC"/>
<path d="M44.2228 57.6446C43.5442 57.971 42.7809 58.0785 42.0385 57.9522C41.2962 57.8259 40.6114 57.472 40.0789 56.9396C41.4235 58.2839 43.7228 57.3316 43.7228 55.4299V2.57716C43.7228 0.67544 41.4235 -0.27679 40.0789 1.06776C40.6114 0.53531 41.2962 0.181459 42.0385 0.0551456C42.7809 -0.0711679 43.5442 0.036297 44.2228 0.362679L56.2332 6.13847C56.8516 6.43588 57.3735 6.90187 57.7387 7.48281C58.104 8.06375 58.2977 8.73603 58.2977 9.42224V48.5853C58.2977 49.9856 57.4952 51.2623 56.2332 51.8691L44.2228 57.6446Z" fill="#1F9CF0"/>
<path d="M41.3421 57.752C41.806 57.9329 42.3021 58.0164 42.7997 57.9973C43.2972 57.9781 43.7855 57.8568 44.2342 57.6409L56.2371 51.8651C56.8553 51.5676 57.377 51.1015 57.7421 50.5206C58.1071 49.9397 58.3008 49.2675 58.3007 48.5814V9.41852C58.3008 8.73244 58.1072 8.06028 57.7421 7.47936C57.3771 6.89844 56.8555 6.43236 56.2373 6.13476L44.234 0.358732C43.5558 0.0324211 42.7929 -0.0750081 42.0509 0.0513129C41.309 0.177634 40.6247 0.531458 40.0926 1.06382L17.1143 22.028L7.105 14.4302C6.65351 14.0875 6.09628 13.9137 5.53 13.9389C4.96372 13.964 4.42412 14.1867 4.00483 14.5681L0.794678 17.4884C-0.263863 18.4511 -0.265006 20.1164 0.791935 21.0808L9.4722 28.9999L0.791935 36.9189C-0.265006 37.8835 -0.263863 39.5485 0.794678 40.5115L4.00483 43.4315C4.42409 43.813 4.96367 44.0357 5.52996 44.0609C6.09624 44.0861 6.65348 43.9123 7.105 43.5696L17.1143 35.9717L40.0926 56.9356C40.448 57.2915 40.8735 57.5695 41.3421 57.752V57.752ZM43.7344 15.7647L26.2989 28.9999L43.7344 42.2347V15.7647Z" fill="url(#paint0_linear_57_50)" fill-opacity="0.25"/>
</g>
<defs>
<linearGradient id="paint0_linear_57_50" x1="29.1504" y1="-0.000211541" x2="29.1504" y2="58" gradientUnits="userSpaceOnUse">
<stop stop-color="white"/>
<stop offset="1" stop-color="white" stop-opacity="0"/>
</linearGradient>
</defs>
</svg>
